<svg xmlns="http://www.w3.org/2000/svg" width="38" height="36" viewBox="0 0 38 36" fill="none">
  <g style="mix-blend-mode:multiply">
    <path d="M18.5733 25.6349C19.4951 25.6349 20.2423 24.8722 20.2423 23.9314C20.2423 22.9907 19.4951 22.228 18.5733 22.228C17.6515 22.228 16.9043 22.9907 16.9043 23.9314C16.9043 24.8722 17.6515 25.6349 18.5733 25.6349Z" fill="#F15E5A"/>
  </g>
  <g style="mix-blend-mode:multiply">
    <path d="M31.3289 14.5658C30.5149 12.7382 29.5388 10.8738 27.8971 9.76796C26.1977 8.62284 23.6569 8.45174 21.6203 8.53032C17.5651 8.68684 13.7421 9.74895 10.7487 12.5455C7.99059 15.1222 6.57615 18.9048 5.99932 22.6748C5.65036 24.9511 5.58827 27.3579 6.46624 29.4803C7.07288 30.9454 8.14644 32.1862 9.4516 33.0449C10.609 33.8053 12.1128 34.4391 13.4838 34.536C13.7007 34.5512 13.9156 34.565 14.1283 34.5772C12.8306 33.8218 12.0209 31.9574 11.5584 30.4828V30.4771C11.2945 29.5661 11.1016 28.6352 10.9815 27.6932C10.4916 23.9245 11.0312 19.9036 11.9247 16.3459C12.0613 15.8022 12.3593 15.1349 12.9803 15.2965C13.1452 15.342 13.294 15.4344 13.4095 15.5628C13.525 15.6913 13.6025 15.8505 13.6328 16.0221C13.7471 16.6292 13.8272 17.3611 13.9092 18.1057C13.9166 18.1691 13.9228 18.2369 13.929 18.3041C13.9334 18.3491 13.9377 18.3941 13.9414 18.4397C13.947 18.5031 13.952 18.5702 13.9563 18.6361C13.9601 18.6849 13.9638 18.7344 13.9669 18.7844C13.9669 18.7908 13.9669 18.7971 13.9669 18.8034C13.9781 19.0233 13.9911 19.242 14.0054 19.4581V19.4872C14.0141 19.6393 14.0222 19.7908 14.0315 19.9397C14.0358 20.0138 14.0408 20.088 14.0458 20.1609C14.0495 20.209 14.0526 20.2566 14.0563 20.3034C14.0625 20.3915 14.07 20.4777 14.078 20.5626L14.0818 20.6019C14.0874 20.659 14.0929 20.7147 14.0992 20.7699C14.1054 20.825 14.1122 20.8789 14.119 20.9321C14.124 20.9714 14.129 21.0107 14.1352 21.0487L14.1482 21.1355C14.1482 21.1444 14.1513 21.1526 14.1526 21.1615C14.1575 21.1887 14.1619 21.2154 14.1668 21.242C14.1668 21.2534 14.1706 21.2642 14.173 21.2749L14.1768 21.2952C14.1886 21.3586 14.2016 21.415 14.2153 21.4714C14.2153 21.4714 14.2153 21.4746 14.2153 21.4758C14.4015 22.6526 14.7008 23.7794 15.228 24.8732C15.5415 25.5252 15.9215 26.1552 16.0892 26.8611C16.2075 27.3759 16.2099 27.9113 16.0963 28.4272C15.9828 28.943 15.7562 29.4259 15.4335 29.8396C15.1324 30.2198 14.7455 30.5443 14.5574 30.9936C14.3314 31.5347 14.5574 32.3579 15.2739 32.2451C15.4071 32.2222 15.5341 32.1708 15.6465 32.0943C15.759 32.0179 15.8544 31.9181 15.9265 31.8015L17.1994 29.8193C17.3167 30.901 16.748 31.7236 16.522 32.6754C16.4723 32.8846 16.4276 33.1273 16.6114 33.2832C16.6541 33.3171 16.703 33.3421 16.7552 33.3566C16.8074 33.3712 16.8619 33.3751 16.9156 33.3681C17.164 33.3396 17.3366 33.1621 17.49 32.9815C18.3287 31.9868 18.7948 30.7209 18.8057 29.4086C18.8057 28.8472 18.761 28.1938 19.1745 27.8244C19.5744 27.4663 20.1804 27.5753 20.7082 27.6425C21.7649 27.7725 22.8368 27.6448 23.8357 27.2699L23.8208 27.292C23.4247 27.8782 24.0884 28.6032 24.6901 28.2426C25.6059 27.6887 26.5193 27.1368 26.9608 26.9961C27.6438 26.7781 28.3516 26.5576 29.0626 26.6393C29.7735 26.7211 30.4944 27.19 30.6453 27.9067C28.7732 29.0873 27.4892 30.9948 25.9791 32.6431C26.4051 32.4479 26.8242 32.238 27.2365 32.0132C27.6805 31.7751 28.112 31.5134 28.5292 31.2293C31.4897 29.1887 33.3432 25.5734 33.2985 21.9264C33.2674 19.3649 32.3683 16.8985 31.3289 14.5658ZM28.4007 19.4099C28.3783 19.8168 28.2144 20.1989 28.0474 20.569C27.804 21.0977 27.5325 21.6124 27.234 22.1108C27.2042 22.1615 27.1719 22.2122 27.144 22.2629C27.1204 22.3028 27.0968 22.3427 27.0725 22.3827L27.0496 22.4213C27.0192 22.4714 26.9875 22.5221 26.9577 22.5721C26.8041 22.8231 26.6437 23.0791 26.4765 23.3402L26.3523 23.5303L26.2647 23.6685L26.1933 23.7781L26.0487 23.9986C26.0443 24.0062 26.0393 24.0138 26.0344 24.0208L25.9021 24.2204C25.8537 24.2946 25.804 24.3687 25.7543 24.4429L25.6053 24.6659L25.4811 24.8478L25.4532 24.889L25.1514 25.3326L25.0322 25.5081C23.8935 26.1849 22.6249 26.6342 21.3136 26.7166C19.6116 26.8231 17.842 26.2692 16.6188 25.0576C15.7812 24.228 15.2776 23.0601 15.1963 21.87C15.2013 21.8028 15.2069 21.7363 15.2118 21.6691C15.223 21.5352 15.2348 21.4017 15.2472 21.2686C15.2541 21.2014 15.2603 21.1349 15.2671 21.0683C15.2739 21.0018 15.2808 20.9346 15.2882 20.8681C15.2957 20.8015 15.3025 20.7344 15.3106 20.6678C15.3273 20.5202 15.3453 20.3719 15.364 20.2242L15.3844 20.069C15.4014 19.9456 15.4188 19.822 15.4366 19.6982L15.472 19.4581C15.5225 19.1311 15.578 18.8051 15.6384 18.4803L15.6757 18.2825L15.711 18.0994C15.7524 17.897 15.7938 17.6953 15.8352 17.4942C15.8495 17.4308 15.8638 17.3636 15.8787 17.2977C15.8936 17.2318 15.9079 17.1672 15.9234 17.1019C16.0443 16.5797 16.1786 16.0607 16.3264 15.5449C16.5143 14.8871 16.7236 14.2361 16.9541 13.5918C17.1994 12.9213 17.6011 12.1476 18.3027 12.1038C18.8473 12.0709 19.3229 12.5411 19.4937 13.0702C19.5244 13.1659 19.5483 13.2638 19.5651 13.363C19.6414 13.8066 19.5893 14.2737 19.5365 14.7261L18.8616 20.4707C18.847 20.5818 18.8689 20.6946 18.9239 20.7916C18.9788 20.8886 19.0637 20.9643 19.1652 21.0069C19.5142 21.1438 19.7414 20.7718 19.8687 20.4631L22.4592 14.1634C22.7597 13.434 23.2663 12.5709 24.0369 12.6577C24.5678 12.7166 24.9478 13.254 25.021 13.7933C25.0943 14.3326 24.9323 14.8706 24.7727 15.3928L22.1667 23.1184C21.9941 23.6311 22.669 23.9841 22.9739 23.5417L25.9462 19.2559C26.1946 18.9391 26.4541 18.6222 26.7962 18.415C27.1384 18.2078 27.5885 18.1425 27.9282 18.3516C28.2678 18.5607 28.423 19.0037 28.4007 19.4099Z" fill="#F15E5A"/>
  </g>
  <g style="mix-blend-mode:multiply">
    <path d="M5.79482 29.4981C8.48607 29.4981 10.6678 26.1326 10.6678 21.981C10.6678 17.8294 8.48607 14.4639 5.79482 14.4639C3.10356 14.4639 0.921875 17.8294 0.921875 21.981C0.921875 26.1326 3.10356 29.4981 5.79482 29.4981Z" fill="#FEC768"/>
  </g>
  <g style="mix-blend-mode:multiply">
    <path d="M9.32643 9.51325C10.3017 9.51325 11.0923 8.70635 11.0923 7.71097C11.0923 6.7156 10.3017 5.90869 9.32643 5.90869C8.35116 5.90869 7.56055 6.7156 7.56055 7.71097C7.56055 8.70635 8.35116 9.51325 9.32643 9.51325Z" fill="#F15E5A"/>
  </g>
  <g style="mix-blend-mode:multiply">
    <path d="M14.8706 3.62732C15.4878 3.62732 15.9882 3.11661 15.9882 2.48663C15.9882 1.85665 15.4878 1.34595 14.8706 1.34595C14.2533 1.34595 13.7529 1.85665 13.7529 2.48663C13.7529 3.11661 14.2533 3.62732 14.8706 3.62732Z" fill="#FDC866"/>
  </g>
  <g style="mix-blend-mode:multiply">
    <path d="M25.8234 6.87004C27.4588 6.87004 28.7846 5.51697 28.7846 3.84786C28.7846 2.17876 27.4588 0.825684 25.8234 0.825684C24.1881 0.825684 22.8623 2.17876 22.8623 3.84786C22.8623 5.51697 24.1881 6.87004 25.8234 6.87004Z" fill="#5479E5"/>
  </g>
  <path d="M14.6468 14.1636C15.1879 14.1636 15.6266 13.7159 15.6266 13.1636C15.6266 12.6113 15.1879 12.1636 14.6468 12.1636C14.1057 12.1636 13.667 12.6113 13.667 13.1636C13.667 13.7159 14.1057 14.1636 14.6468 14.1636Z" fill="#F8FBF8"/>
  <g style="mix-blend-mode:multiply">
    <path d="M18.5733 25.6349C19.4951 25.6349 20.2423 24.8722 20.2423 23.9314C20.2423 22.9907 19.4951 22.228 18.5733 22.228C17.6515 22.228 16.9043 22.9907 16.9043 23.9314C16.9043 24.8722 17.6515 25.6349 18.5733 25.6349Z" fill="#4A4099"/>
  </g>
  <path d="M14.4229 20.9885V21.0342" stroke="#4A4099" stroke-miterlimit="10"/>
  <path d="M15.2273 20.6235L15.1826 20.5779" stroke="#4A4099" stroke-miterlimit="10"/>
  <g style="mix-blend-mode:multiply">
    <path d="M36.9279 18.8713C36.836 22.2788 35.2781 25.5526 32.969 28.0152C31.0187 30.0944 28.5648 31.6274 25.9371 32.6895C27.4658 31.0304 28.7561 29.0995 30.6449 27.8999C30.494 27.1857 29.7756 26.7167 29.0622 26.6324C28.3487 26.5481 27.6434 26.7712 26.9604 26.9892C26.5189 27.1299 25.6055 27.6819 24.6897 28.2357C24.0893 28.5988 23.4255 27.8739 23.8204 27.2852L23.8353 27.263C22.8364 27.6379 21.7645 27.7656 20.7078 27.6356C20.18 27.5684 19.574 27.4594 19.1741 27.8175C18.7606 28.1888 18.8078 28.8422 18.8053 29.4018C18.7944 30.714 18.3283 31.9799 17.4896 32.9746C17.3362 33.1552 17.1611 33.3327 16.9152 33.3612C16.8615 33.3682 16.807 33.3643 16.7548 33.3498C16.7026 33.3352 16.6537 33.3102 16.611 33.2763C16.4247 33.1204 16.4719 32.8777 16.5215 32.6685C16.7476 31.718 17.3163 30.8941 17.199 29.8124L15.9329 31.8073C15.8608 31.9239 15.7654 32.0237 15.653 32.1001C15.5405 32.1766 15.4136 32.228 15.2803 32.2509C14.5619 32.3637 14.3378 31.5405 14.5638 30.9993C14.7501 30.55 15.1388 30.2256 15.4399 29.8454C15.7626 29.4317 15.9892 28.9488 16.1028 28.4329C16.2163 27.9171 16.2139 27.3817 16.0956 26.8669C15.928 26.1609 15.548 25.531 15.2344 24.8789C14.7072 23.7833 14.4055 22.6565 14.2192 21.4829C14.2192 21.4829 14.2192 21.4797 14.2192 21.4784C14.2055 21.422 14.1925 21.3631 14.1807 21.3023L14.177 21.282C14.177 21.2712 14.1726 21.2604 14.1708 21.249C14.1658 21.2224 14.1615 21.1958 14.1565 21.1686C14.1565 21.1597 14.1565 21.1514 14.1521 21.1426L14.1391 21.0557C14.1335 21.0171 14.1279 20.9784 14.123 20.9391C14.1161 20.8859 14.1093 20.832 14.1031 20.7769C14.0969 20.7218 14.0913 20.666 14.0857 20.609L14.082 20.5697C14.0739 20.4848 14.0671 20.3986 14.0602 20.3105C14.0565 20.2636 14.0534 20.2161 14.0497 20.1679C14.0447 20.095 14.0398 20.0209 14.0354 19.9468C14.0261 19.7978 14.018 19.6464 14.0093 19.4943V19.4651C13.995 19.249 13.982 19.0304 13.9708 18.8105C13.9708 18.8042 13.9708 18.7978 13.9708 18.7915C13.9677 18.7414 13.964 18.692 13.9603 18.6432C13.9559 18.5798 13.951 18.512 13.9454 18.4467C13.9416 18.4011 13.9373 18.3561 13.933 18.3111C13.9267 18.244 13.9205 18.1781 13.9131 18.1128C14.6225 17.1766 15.4295 16.3218 16.3198 15.5634L16.3322 15.5526C16.1844 16.0676 16.0501 16.5866 15.9292 17.1096C15.9139 17.1747 15.899 17.2399 15.8845 17.3054C15.8696 17.3688 15.8553 17.4366 15.841 17.5019C15.7967 17.7034 15.7553 17.9051 15.7168 18.1071L15.6815 18.2902L15.6442 18.4879C15.6144 18.6508 15.5852 18.813 15.5573 18.9759C15.5293 19.1388 15.5026 19.3023 15.4778 19.4658L15.4424 19.7059C15.4242 19.8293 15.4068 19.9529 15.3902 20.0767L15.3698 20.2319C15.3511 20.3796 15.3331 20.5279 15.3164 20.6755C15.3083 20.7421 15.3008 20.8092 15.294 20.8758C15.2872 20.9423 15.2797 21.0089 15.2729 21.076C15.2661 21.1432 15.2598 21.2091 15.253 21.2763C15.2406 21.4094 15.2288 21.5429 15.2176 21.6768C15.212 21.7446 15.2077 21.813 15.2021 21.8808C15.2096 21.9917 15.2214 22.102 15.2363 22.2116C15.2557 22.3549 15.2812 22.4972 15.3126 22.6388L15.3164 22.6571C15.3313 22.7205 15.3474 22.7883 15.3648 22.8536C15.3766 22.898 15.389 22.9417 15.402 22.9854C15.4219 23.0545 15.4436 23.1223 15.4672 23.1901C15.5157 23.332 15.5701 23.4713 15.6305 23.6077C15.6759 23.7097 15.7237 23.8099 15.7752 23.9081C15.7926 23.9417 15.8106 23.9715 15.8286 24.007C15.8646 24.0703 15.9019 24.1337 15.9398 24.1971C15.9789 24.2604 16.0186 24.3238 16.0596 24.3827C16.1428 24.5044 16.231 24.6229 16.3247 24.7364C16.3483 24.7649 16.3725 24.7928 16.3967 24.8206C16.4452 24.8764 16.4949 24.9309 16.5458 24.9841C16.5712 25.0108 16.5973 25.0367 16.6234 25.0627C17.8466 26.2744 19.6162 26.8282 21.3181 26.7218C22.6295 26.6394 23.898 26.1901 25.0368 25.5133L25.156 25.3378C25.257 25.1895 25.3576 25.0416 25.4578 24.8942L25.4857 24.853C25.5267 24.7896 25.5677 24.7319 25.6099 24.6711C25.6602 24.5963 25.7099 24.5222 25.7589 24.448C25.808 24.3739 25.8582 24.2997 25.9067 24.2256C25.9551 24.1514 25.9955 24.0925 26.0389 24.026C26.0439 24.019 26.0489 24.0114 26.0532 24.0038C26.1023 23.9303 26.1507 23.8568 26.1979 23.7833C26.2221 23.7465 26.2463 23.7097 26.2693 23.6736L26.3593 23.5355C26.4003 23.4721 26.4413 23.4087 26.4835 23.3454C26.6491 23.0847 26.8095 22.8287 26.9647 22.5773C26.9958 22.5272 27.0268 22.4765 27.0566 22.4265L27.0796 22.3878C27.1038 22.3479 27.1274 22.308 27.151 22.268C27.1814 22.2173 27.2131 22.1666 27.241 22.116C27.5395 21.6175 27.811 21.1028 28.0544 20.5741C28.2202 20.204 28.3854 19.8219 28.4077 19.4151C28.4301 19.0082 28.2792 18.5672 27.9377 18.3568C27.5962 18.1464 27.1479 18.2148 26.8058 18.4201C26.4636 18.6255 26.206 18.9468 25.9557 19.2611L22.9741 23.5418C22.6674 23.9854 21.9924 23.6312 22.1669 23.1185L24.7748 15.3942C24.9343 14.8751 25.0964 14.3339 25.0231 13.7947C24.9499 13.2554 24.5698 12.7173 24.039 12.659C23.2684 12.5722 22.7617 13.4353 22.4612 14.1647L19.8695 20.4645C19.7422 20.7731 19.515 21.1451 19.166 21.0082C19.0645 20.9657 18.9796 20.89 18.9247 20.793C18.8698 20.696 18.8479 20.5831 18.8624 20.4721L19.5373 14.7275C19.5901 14.275 19.6423 13.8086 19.5659 13.3644C21.6702 12.2465 23.9794 11.5158 26.327 11.1286C27.8793 10.8751 29.4757 10.7611 31.0243 11.0462C32.5728 11.3314 34.0804 12.0386 35.1409 13.225C36.4778 14.723 36.9826 16.8441 36.9279 18.8713Z" fill="#416FF4" fill-opacity="0.86"/>
  </g>
  <path d="M30.3308 23.2013C31.2567 23.2013 32.0072 22.4353 32.0072 21.4903C32.0072 20.5453 31.2567 19.7793 30.3308 19.7793C29.4049 19.7793 28.6543 20.5453 28.6543 21.4903C28.6543 22.4353 29.4049 23.2013 30.3308 23.2013Z" fill="#FFFEF9"/>
</svg>