<svg width="40" height="38" viewBox="0 0 40 38" fill="none" xmlns="http://www.w3.org/2000/svg">
<g style="mix-blend-mode:multiply">
<path d="M19.5498 27.0592C20.5201 27.0592 21.3067 26.2542 21.3067 25.2612C21.3067 24.2682 20.5201 23.4631 19.5498 23.4631C18.5795 23.4631 17.793 24.2682 17.793 25.2612C17.793 26.2542 18.5795 27.0592 19.5498 27.0592Z" fill="#F15E5A"/>
</g>
<g style="mix-blend-mode:multiply">
<path d="M32.9774 15.3752C32.1205 13.446 31.0931 11.478 29.365 10.3108C27.5761 9.10203 24.9016 8.92143 22.7578 9.00437C18.4892 9.1696 14.465 10.2907 11.314 13.2426C8.41074 15.9625 6.92185 19.9553 6.31466 23.9347C5.94734 26.3374 5.88198 28.878 6.80616 31.1182C7.44472 32.6647 8.57479 33.9745 9.94864 34.8809C11.1669 35.6836 12.75 36.3525 14.1931 36.4548C14.4214 36.4709 14.6476 36.4854 14.8715 36.4983C13.5055 35.701 12.6532 33.733 12.1663 32.1764V32.1704C11.8886 31.2088 11.6855 30.2262 11.5591 29.2318C11.0434 25.2538 11.6114 21.0095 12.5519 17.2542C12.6957 16.6802 13.0094 15.9759 13.663 16.1464C13.8366 16.1945 13.9933 16.292 14.1149 16.4276C14.2365 16.5631 14.318 16.7312 14.35 16.9123C14.4702 17.5532 14.5545 18.3258 14.6408 19.1118C14.6486 19.1786 14.6552 19.2502 14.6617 19.3211C14.6663 19.3686 14.6709 19.4161 14.6748 19.4643C14.6807 19.5312 14.6859 19.6021 14.6905 19.6716C14.6944 19.7231 14.6983 19.7753 14.7016 19.8282C14.7016 19.8349 14.7016 19.8415 14.7016 19.8482C14.7134 20.0803 14.7271 20.3111 14.7421 20.5392V20.57C14.7513 20.7305 14.7598 20.8904 14.7696 21.0476C14.7741 21.1259 14.7794 21.2041 14.7846 21.2811C14.7885 21.3319 14.7918 21.3821 14.7957 21.4316C14.8022 21.5245 14.8101 21.6155 14.8186 21.7052L14.8225 21.7466C14.8284 21.8068 14.8343 21.8657 14.8408 21.9239C14.8473 21.9821 14.8545 22.0389 14.8617 22.0951C14.8669 22.1366 14.8722 22.1781 14.8787 22.2182L14.8924 22.3099C14.8924 22.3192 14.8957 22.3279 14.897 22.3373C14.9022 22.366 14.9068 22.3941 14.912 22.4222C14.912 22.4343 14.916 22.4456 14.9186 22.457L14.9225 22.4784C14.9349 22.5453 14.9486 22.6049 14.963 22.6644C14.963 22.6644 14.963 22.6677 14.963 22.6691C15.1591 23.9113 15.4741 25.1006 16.029 26.2551C16.3591 26.9435 16.7591 27.6084 16.9356 28.3535C17.0601 28.8969 17.0626 29.4621 16.9431 30.0066C16.8236 30.5511 16.585 31.0608 16.2454 31.4975C15.9284 31.8988 15.5212 32.2413 15.3232 32.7156C15.0852 33.2868 15.3232 34.1558 16.0774 34.0367C16.2176 34.0124 16.3513 33.9582 16.4696 33.8775C16.588 33.7968 16.6884 33.6915 16.7643 33.5684L18.1042 31.4761C18.2277 32.6179 17.629 33.4862 17.3911 34.4909C17.3388 34.7116 17.2918 34.9678 17.4852 35.1324C17.5302 35.1682 17.5817 35.1946 17.6366 35.2099C17.6916 35.2253 17.749 35.2294 17.8055 35.222C18.0669 35.1919 18.2486 35.0046 18.4101 34.814C19.2929 33.764 19.7836 32.4278 19.795 31.0426C19.795 30.4499 19.748 29.7603 20.1833 29.3703C20.6042 28.9924 21.2421 29.1074 21.7977 29.1783C22.91 29.3156 24.0383 29.1808 25.0898 28.785L25.0741 28.8084C24.6571 29.4272 25.3558 30.1924 25.9892 29.8118C26.9532 29.2272 27.9147 28.6445 28.3794 28.496C29.0983 28.2659 29.8434 28.0331 30.5918 28.1194C31.3401 28.2057 32.099 28.7007 32.2578 29.4573C30.2872 30.7035 28.9356 32.7169 27.346 34.4568C27.7944 34.2507 28.2356 34.0291 28.6696 33.7919C29.1369 33.5405 29.5911 33.2643 30.0303 32.9644C33.1467 30.8105 35.0977 26.9943 35.0506 23.1447C35.0179 20.4409 34.0715 17.8375 32.9774 15.3752ZM29.895 20.4884C29.8715 20.9178 29.699 21.3212 29.5232 21.7118C29.267 22.2699 28.9811 22.8132 28.6669 23.3393C28.6356 23.3928 28.6016 23.4464 28.5722 23.4999C28.5473 23.542 28.5225 23.5841 28.497 23.6263L28.4728 23.6671C28.4408 23.7199 28.4075 23.7735 28.3761 23.8263C28.2144 24.0912 28.0456 24.3614 27.8696 24.637L27.7388 24.8377L27.6467 24.9835L27.5715 25.0993L27.4192 25.332C27.4147 25.3401 27.4094 25.3481 27.4042 25.3554L27.265 25.5662C27.214 25.6444 27.1617 25.7227 27.1094 25.8009L26.9526 26.0364L26.8218 26.2284L26.7924 26.2719L26.4748 26.7401L26.3493 26.9254C25.1506 27.6398 23.8153 28.1141 22.4349 28.201C20.6434 28.3134 18.7807 27.7288 17.4931 26.4498C16.6114 25.5742 16.0813 24.3414 15.9957 23.0851C16.0009 23.0142 16.0068 22.944 16.012 22.8731C16.0238 22.7317 16.0362 22.5908 16.0493 22.4503C16.0565 22.3794 16.063 22.3092 16.0702 22.239C16.0774 22.1687 16.0846 22.0978 16.0924 22.0276C16.1003 21.9573 16.1075 21.8864 16.116 21.8162C16.1336 21.6603 16.1526 21.5038 16.1722 21.348L16.1937 21.1841C16.2116 21.0538 16.2299 20.9234 16.2486 20.7927L16.2859 20.5392C16.3391 20.1941 16.3974 19.85 16.4611 19.5071L16.5003 19.2984L16.5375 19.1051C16.5811 18.8915 16.6247 18.6785 16.6683 18.4662C16.6833 18.3994 16.6983 18.3284 16.714 18.2589C16.7297 18.1893 16.7447 18.1211 16.7611 18.0522C16.8883 17.501 17.0297 16.9531 17.1852 16.4086C17.3831 15.7143 17.6033 15.0271 17.846 14.347C18.1042 13.6393 18.5271 12.8226 19.2656 12.7764C19.8388 12.7416 20.3395 13.238 20.5192 13.7965C20.5516 13.8975 20.5768 14.0008 20.5944 14.1056C20.6748 14.5738 20.6199 15.0668 20.5643 15.5444L19.8539 21.6082C19.8386 21.7254 19.8616 21.8445 19.9194 21.9469C19.9773 22.0492 20.0666 22.1291 20.1735 22.1741C20.5408 22.3186 20.78 21.9259 20.914 21.6001L23.6408 14.9504C23.9571 14.1805 24.4905 13.2694 25.3016 13.361C25.8604 13.4233 26.2604 13.9905 26.3375 14.5598C26.4147 15.129 26.2441 15.6969 26.0761 16.2481L23.333 24.4029C23.1513 24.9441 23.8617 25.3167 24.1826 24.8497L27.3114 20.3258C27.5728 19.9914 27.846 19.6569 28.2062 19.4382C28.5663 19.2194 29.0401 19.1505 29.3977 19.3713C29.7552 19.592 29.9186 20.0596 29.895 20.4884Z" fill="#F15E5A"/>
</g>
<g style="mix-blend-mode:multiply">
<path d="M6.09816 31.1368C8.93106 31.1368 11.2276 27.5843 11.2276 23.2021C11.2276 18.8198 8.93106 15.2673 6.09816 15.2673C3.26527 15.2673 0.96875 18.8198 0.96875 23.2021C0.96875 27.5843 3.26527 31.1368 6.09816 31.1368Z" fill="#FEC768"/>
</g>
<g style="mix-blend-mode:multiply">
<path d="M9.81585 10.0419C10.8425 10.0419 11.6747 9.19014 11.6747 8.13947C11.6747 7.0888 10.8425 6.23706 9.81585 6.23706C8.78925 6.23706 7.95703 7.0888 7.95703 8.13947C7.95703 9.19014 8.78925 10.0419 9.81585 10.0419Z" fill="#F15E5A"/>
</g>
<g style="mix-blend-mode:multiply">
<path d="M15.653 3.82877C16.3028 3.82877 16.8295 3.28969 16.8295 2.62471C16.8295 1.95973 16.3028 1.42065 15.653 1.42065C15.0033 1.42065 14.4766 1.95973 14.4766 2.62471C14.4766 3.28969 15.0033 3.82877 15.653 3.82877Z" fill="#FDC866"/>
</g>
<g style="mix-blend-mode:multiply">
<path d="M27.1795 7.25174C28.901 7.25174 30.2965 5.82349 30.2965 4.06166C30.2965 2.29983 28.901 0.871582 27.1795 0.871582C25.458 0.871582 24.0625 2.29983 24.0625 4.06166C24.0625 5.82349 25.458 7.25174 27.1795 7.25174Z" fill="#5479E5"/>
</g>
<path d="M15.4142 14.9502C15.9838 14.9502 16.4456 14.4776 16.4456 13.8947C16.4456 13.3117 15.9838 12.8391 15.4142 12.8391C14.8446 12.8391 14.3828 13.3117 14.3828 13.8947C14.3828 14.4776 14.8446 14.9502 15.4142 14.9502Z" fill="#F8FBF8"/>
<g style="mix-blend-mode:multiply">
<path d="M19.5498 27.0592C20.5201 27.0592 21.3067 26.2542 21.3067 25.2612C21.3067 24.2682 20.5201 23.4631 19.5498 23.4631C18.5795 23.4631 17.793 24.2682 17.793 25.2612C17.793 26.2542 18.5795 27.0592 19.5498 27.0592Z" fill="#4A4099"/>
</g>
<path d="M15.1797 22.1545V22.2027" stroke="#4A4099" stroke-miterlimit="10"/>
<path d="M16.0275 21.7694L15.9805 21.7212" stroke="#4A4099" stroke-miterlimit="10"/>
<g style="mix-blend-mode:multiply">
<path d="M38.8707 19.9199C38.7739 23.5166 37.1341 26.9723 34.7034 29.5717C32.6504 31.7664 30.0674 33.3845 27.3014 34.5057C28.9105 32.7544 30.2687 30.7162 32.2569 29.45C32.0981 28.6961 31.3419 28.2011 30.5909 28.1121C29.84 28.0231 29.0975 28.2586 28.3785 28.4887C27.9138 28.6372 26.9524 29.2198 25.9883 29.8045C25.3563 30.1878 24.6576 29.4225 25.0733 28.8011L25.089 28.7777C24.0374 29.1735 22.9092 29.3083 21.7968 29.171C21.2413 29.1001 20.6034 28.9851 20.1824 29.363C19.7471 29.755 19.7968 30.4446 19.7942 31.0353C19.7828 32.4205 19.2921 33.7567 18.4092 34.8067C18.2478 34.9973 18.0635 35.1846 17.8047 35.2147C17.7481 35.2221 17.6907 35.218 17.6358 35.2026C17.5808 35.1872 17.5294 35.1609 17.4844 35.1251C17.2883 34.9605 17.338 34.7043 17.3903 34.4836C17.6282 33.4802 18.2269 32.6106 18.1034 31.4688L16.7707 33.5745C16.6948 33.6976 16.5943 33.8029 16.476 33.8836C16.3576 33.9643 16.224 34.0185 16.0837 34.0428C15.3275 34.1618 15.0916 33.2929 15.3295 32.7216C15.5256 32.2474 15.9347 31.9049 16.2517 31.5035C16.5914 31.0669 16.8299 30.5572 16.9494 30.0127C17.069 29.4681 17.0664 28.903 16.9419 28.3596C16.7654 27.6144 16.3654 26.9495 16.0354 26.2612C15.4805 25.1047 15.1628 23.9153 14.9668 22.6765C14.9668 22.6765 14.9668 22.6731 14.9668 22.6718C14.9524 22.6123 14.9386 22.55 14.9262 22.4858L14.9223 22.4644C14.9223 22.4531 14.9177 22.4417 14.9158 22.4296C14.9105 22.4015 14.906 22.3735 14.9007 22.3447C14.9007 22.3353 14.9007 22.3266 14.8962 22.3173L14.8824 22.2256C14.8766 22.1848 14.8707 22.144 14.8654 22.1025C14.8583 22.0464 14.8511 21.9895 14.8445 21.9313C14.838 21.8731 14.8321 21.8142 14.8262 21.754L14.8223 21.7126C14.8138 21.6229 14.8066 21.532 14.7994 21.439C14.7955 21.3895 14.7922 21.3393 14.7883 21.2885C14.7831 21.2115 14.7779 21.1333 14.7733 21.055C14.7635 20.8978 14.755 20.7379 14.7458 20.5774V20.5466C14.7308 20.3185 14.7171 20.0878 14.7053 19.8556C14.7053 19.8489 14.7053 19.8423 14.7053 19.8356C14.702 19.7827 14.6981 19.7305 14.6942 19.679C14.6896 19.6122 14.6844 19.5406 14.6785 19.4717C14.6746 19.4235 14.67 19.376 14.6654 19.3285C14.6589 19.2576 14.6524 19.1881 14.6445 19.1192C15.3913 18.1309 16.2407 17.2286 17.1779 16.4281L17.1909 16.4167C17.0354 16.9603 16.894 17.5082 16.7668 18.0603C16.7506 18.1289 16.7349 18.1978 16.7197 18.267C16.704 18.3338 16.689 18.4054 16.6739 18.4743C16.6273 18.687 16.5837 18.9 16.5432 19.1131L16.506 19.3065L16.4668 19.5152C16.4354 19.6871 16.4047 19.8583 16.3752 20.0302C16.3458 20.2021 16.3177 20.3747 16.2916 20.5473L16.2543 20.8008C16.2352 20.931 16.2169 21.0615 16.1994 21.1921L16.1779 21.356C16.1583 21.5119 16.1393 21.6684 16.1217 21.8243C16.1132 21.8945 16.1053 21.9654 16.0981 22.0356C16.0909 22.1059 16.0831 22.1761 16.0759 22.247C16.0687 22.3179 16.0622 22.3875 16.055 22.4584C16.0419 22.5989 16.0295 22.7398 16.0177 22.8812C16.0119 22.9527 16.0073 23.025 16.0014 23.0966C16.0092 23.2136 16.0217 23.33 16.0373 23.4457C16.0578 23.5969 16.0846 23.7472 16.1177 23.8966L16.1217 23.916C16.1373 23.9829 16.1543 24.0544 16.1726 24.1233C16.1851 24.1702 16.1981 24.2163 16.2119 24.2625C16.2328 24.3354 16.2556 24.407 16.2805 24.4785C16.3315 24.6284 16.3888 24.7753 16.4524 24.9194C16.5001 25.0271 16.5504 25.1327 16.6047 25.2364C16.623 25.2719 16.6419 25.3033 16.6609 25.3408C16.6988 25.4077 16.738 25.4746 16.7779 25.5415C16.819 25.6083 16.8609 25.6752 16.904 25.7375C16.9916 25.8659 17.0844 25.991 17.1831 26.1107C17.2079 26.1408 17.2334 26.1702 17.2589 26.1997C17.3099 26.2585 17.3622 26.3161 17.4158 26.3723C17.4426 26.4003 17.47 26.4278 17.4975 26.4552C18.7851 27.7342 20.6478 28.3188 22.4393 28.2064C23.8197 28.1195 25.155 27.6452 26.3537 26.9308L26.4792 26.7455C26.5855 26.589 26.6914 26.4329 26.7968 26.2773L26.8262 26.2338C26.8694 26.1669 26.9125 26.106 26.9569 26.0418C27.0099 25.9629 27.0622 25.8846 27.1138 25.8063C27.1654 25.7281 27.2184 25.6498 27.2694 25.5716C27.3203 25.4933 27.3628 25.4311 27.4086 25.3608C27.4138 25.3535 27.419 25.3455 27.4236 25.3374C27.4752 25.2598 27.5262 25.1822 27.5759 25.1047C27.6014 25.0659 27.6269 25.0271 27.6511 24.9889L27.7458 24.8431C27.789 24.7762 27.8321 24.7093 27.8766 24.6424C28.0508 24.3673 28.2197 24.097 28.3831 23.8317C28.4158 23.7789 28.4485 23.7253 28.4798 23.6725L28.504 23.6317C28.5295 23.5895 28.5543 23.5474 28.5792 23.5053C28.6112 23.4518 28.6445 23.3982 28.6739 23.3447C28.9881 22.8186 29.274 22.2753 29.5302 21.7172C29.7047 21.3266 29.8785 20.9232 29.902 20.4938C29.9256 20.0643 29.7668 19.5988 29.4073 19.3767C29.0478 19.1546 28.5759 19.2269 28.2158 19.4436C27.8556 19.6603 27.5844 19.9995 27.321 20.3312L24.1824 24.8498C23.8596 25.318 23.1491 24.9441 23.3328 24.403L26.0779 16.2495C26.2458 15.7016 26.4164 15.1304 26.3393 14.5611C26.2622 13.9919 25.8622 13.424 25.3034 13.3624C24.4922 13.2708 23.9589 14.1819 23.6426 14.9518L20.9145 21.6015C20.7805 21.9273 20.5413 22.3199 20.1739 22.1755C20.0671 22.1305 19.9777 22.0506 19.9199 21.9482C19.8621 21.8459 19.839 21.7268 19.8543 21.6095L20.5648 15.5458C20.6203 15.0682 20.6752 14.5759 20.5949 14.1069C22.8099 12.927 25.2406 12.1557 27.7119 11.747C29.3458 11.4794 31.0262 11.359 32.6563 11.66C34.2864 11.961 35.8733 12.7076 36.9896 13.9598C38.3968 15.5411 38.9282 17.78 38.8707 19.9199Z" fill="#416FF4" fill-opacity="0.86"/>
</g>
<path d="M31.9249 24.4906C32.8995 24.4906 33.6896 23.682 33.6896 22.6845C33.6896 21.687 32.8995 20.8784 31.9249 20.8784C30.9502 20.8784 30.1602 21.687 30.1602 22.6845C30.1602 23.682 30.9502 24.4906 31.9249 24.4906Z" fill="#FFFEF9"/>
</svg>
