<svg width="276" height="336" viewBox="0 0 276 336" fill="none" xmlns="http://www.w3.org/2000/svg">
<path d="M148.754 219.359L107.984 312" stroke="#222443" stroke-width="2.29" stroke-linecap="round" stroke-linejoin="round"/>
<path d="M244.381 81.6587C225.899 38.9141 166.864 13.5146 123.259 30.6295C97.1289 40.8835 81.0019 64.5587 77.4803 90.8471C73.2435 122.382 96.8944 163.52 85.3912 192.986L155.976 222.379C174.039 185.467 229.755 175.866 246.705 138.443C254.601 121.01 252.352 100.085 244.388 81.6734L244.381 81.6587Z" fill="#E95444"/>
<path d="M186.697 117.462C166.692 165.504 129.53 211.367 121.684 208.099C113.837 204.832 120.211 146.149 140.217 98.1069C160.223 50.0651 181.297 28.7811 194.131 34.1253C206.964 39.4695 206.703 69.4206 186.697 117.462Z" fill="white"/>
<path d="M92.4453 195.911L78.4845 229.436" stroke="#222443" stroke-width="2.29" stroke-linecap="round" stroke-linejoin="round"/>
</svg>
