<svg width="94" height="92" viewBox="0 0 94 92" fill="none" xmlns="http://www.w3.org/2000/svg">
<rect width="92" height="92" rx="46" transform="matrix(1 0 0.0121088 0.999927 0 0.00341797)" fill="#066FE2"/>
<g clip-path="url(#clip0_4154_210)">
<path d="M44.5616 42.531C43.5677 42.2384 42.9748 41.2585 43.2374 40.3422L44.8293 34.968C45.092 34.0517 46.1107 33.546 47.1046 33.8386C48.0986 34.1311 48.6914 35.111 48.4288 36.0273L46.8369 41.4015C46.5743 42.3178 45.5556 42.8234 44.5616 42.531Z" fill="white"/>
<path d="M54.2081 47.4406C55.0879 47.9567 56.2054 47.727 56.7043 46.9274L59.5955 42.2012C60.0943 41.4017 59.7854 40.3351 58.9057 39.8189C58.0259 39.3028 56.9083 39.5326 56.4095 40.3321L53.5183 45.0583C53.0195 45.8578 53.3283 46.9244 54.2081 47.4406Z" fill="white"/>
<path d="M57.0063 52.4779C57.7598 53.0651 58.7576 53.0443 59.2352 52.4315L62.0072 48.8003C62.4847 48.1875 62.2611 47.2148 61.5077 46.6277C60.7542 46.0405 59.7564 46.0613 59.2788 46.6741L56.5067 50.3053C56.0293 50.9181 56.2529 51.8908 57.0063 52.4779Z" fill="white"/>
<path d="M50.3594 43.5492C49.4137 43.1253 48.9907 42.0151 49.4146 41.0695L51.9532 35.2555C52.377 34.3098 53.4872 33.8869 54.4329 34.3107C55.3785 34.7346 55.8015 35.8448 55.3776 36.7904L52.839 42.6044C52.4151 43.55 51.3049 43.973 50.3594 43.5492Z" fill="white"/>
<path d="M44.3626 62.0096L38.1052 58.543C36.3797 57.5871 35.8446 55.2527 36.7107 53.147C36.962 52.5363 37.5676 52.1479 38.2279 52.1529C39.0162 52.1588 45.4407 60.5237 48.4199 55.1471C49.1587 53.8138 46.1447 51.1195 45.1374 50.452C42.6298 48.7903 42.3204 46.2474 45.292 46.4866L51.6746 50.1221C53.5341 51.1813 54.0033 53.8778 52.7223 56.1431L50.8289 59.4909C49.3734 62.0645 46.4894 63.1879 44.3626 62.0096Z" fill="white"/>
<path d="M38.9047 47.5078L37.8149 47.9384C36.8497 48.3198 35.7581 47.8465 35.3766 46.8813L34.2079 43.9234C33.8266 42.9582 34.2998 41.8666 35.265 41.4852L36.3548 41.0545C37.32 40.6732 38.4116 41.1464 38.793 42.1117L39.9617 45.0695C40.3432 46.0347 39.8699 47.1264 38.9047 47.5078Z" fill="white"/>
</g>
<defs>
<clipPath id="clip0_4154_210">
<rect width="32" height="32" fill="white" transform="translate(38.8242 24.7382) rotate(25)"/>
</clipPath>
</defs>
</svg>
