<svg width="16" height="16" viewBox="0 0 16 16" fill="none" xmlns="http://www.w3.org/2000/svg">
<g clip-path="url(#clip0_3892_10954)">
<path d="M14.2997 5.46602C14.3346 6.16611 14.3346 6.99892 14.3346 7.99935C14.3346 10.9849 14.3346 12.4777 13.4071 13.4052C12.4796 14.3327 10.9869 14.3327 8.0013 14.3327C5.01574 14.3327 3.52296 14.3327 2.59546 13.4052C1.66797 12.4777 1.66797 10.9849 1.66797 7.99935C1.66797 5.01379 1.66797 3.52101 2.59546 2.59351C3.52296 1.66602 5.01574 1.66602 8.0013 1.66602C8.71592 1.66602 9.34501 1.66602 9.9013 1.67873" stroke="white" stroke-width="1.5" stroke-linecap="round"/>
<path d="M5.33594 7.66602C5.33594 7.66602 6.33594 7.66602 7.66927 9.99935C7.66927 9.99935 11.0418 3.88824 14.3359 2.66602" stroke="white" stroke-width="1.5" stroke-linecap="round" stroke-linejoin="round"/>
</g>
<defs>
<clipPath id="clip0_3892_10954">
<rect width="16" height="16" fill="white"/>
</clipPath>
</defs>
</svg>
