<svg width="16" height="16" viewBox="0 0 16 16" fill="none" xmlns="http://www.w3.org/2000/svg">
<g clip-path="url(#clip0_3750_2993)">
<path d="M14.2958 5.4665C14.3307 6.1666 14.3307 6.99941 14.3307 7.99984C14.3307 10.9854 14.3307 12.4782 13.4032 13.4057C12.4757 14.3332 10.983 14.3332 7.9974 14.3332C5.01183 14.3332 3.51905 14.3332 2.59156 13.4057C1.66406 12.4782 1.66406 10.9854 1.66406 7.99984C1.66406 5.01428 1.66406 3.52149 2.59156 2.594C3.51905 1.6665 5.01183 1.6665 7.9974 1.6665C8.71201 1.6665 9.34111 1.6665 9.89739 1.67922" stroke="white" stroke-width="1.5" stroke-linecap="round"/>
<path d="M5.32812 7.6665C5.32812 7.6665 6.32813 7.6665 7.66146 9.99984C7.66146 9.99984 11.034 3.88873 14.3281 2.6665" stroke="white" stroke-width="1.5" stroke-linecap="round" stroke-linejoin="round"/>
</g>
<defs>
<clipPath id="clip0_3750_2993">
<rect width="16" height="16" fill="white"/>
</clipPath>
</defs>
</svg>
