<svg width="52" height="52" viewBox="0 0 52 52" fill="none" xmlns="http://www.w3.org/2000/svg">
<g clip-path="url(#clip0_3477_26782)">
<path d="M34.934 10.1782L37.5798 15.7503C37.8543 16.3496 38.41 16.7721 39.0609 16.8764L44.9297 17.7631C45.6915 17.9143 46.3084 18.4722 46.5352 19.215C46.762 19.9578 46.5619 20.7651 46.0145 21.3161L41.8007 25.5828C41.3246 26.0736 41.1109 26.7618 41.2251 27.436L42.2284 33.4904C42.39 34.2409 42.1062 35.0175 41.4988 35.487C40.8913 35.9564 40.0682 36.0353 39.3827 35.6896L34.0796 32.7929C33.5151 32.4828 32.8313 32.4828 32.2668 32.7929L26.9646 35.6905C26.2789 36.0369 25.4551 35.9582 24.8473 35.4884C24.2394 35.0186 23.9557 34.2413 24.118 33.4904L25.1168 27.436C25.2311 26.7618 25.0173 26.0736 24.5412 25.5828L20.3274 21.3161C19.78 20.7651 19.58 19.9578 19.8068 19.215C20.0336 18.4722 20.6505 17.9143 21.4123 17.7631L27.2811 16.8764C27.9319 16.7721 28.4877 16.3496 28.7622 15.7503L31.4079 10.1782C31.7147 9.47814 32.4066 9.02588 33.171 9.02588C33.9353 9.02588 34.6273 9.47814 34.934 10.1782Z" fill="#FFD358"/>
<path d="M41.8079 25.5809C41.3311 26.0727 41.115 26.7608 41.2251 27.4368L42.2292 33.4885C42.3908 34.2405 42.1065 35.0184 41.4982 35.489C40.8899 35.9596 40.0654 36.0394 39.3782 35.694L34.0796 32.7928C33.5144 32.488 32.8338 32.488 32.2685 32.7928L26.9699 35.6976C26.2827 36.0429 25.4583 35.9632 24.8499 35.4926C24.2416 35.022 23.9573 34.2441 24.1189 33.4921L24.343 32.1563C37.6568 24.1052 35.5858 13.1942 34.3754 9.45557C34.6121 9.65361 34.8019 9.90162 34.9313 10.1818L37.5761 15.7583C37.8582 16.3535 38.4144 16.7724 39.0644 16.879L44.9279 17.7666C45.6893 17.9174 46.3061 18.4747 46.5329 19.2171C46.7597 19.9594 46.5598 20.7663 46.0127 21.3169L41.8079 25.5809Z" fill="#FFD358"/>
<path d="M12.3377 0.917388L14.4544 5.37953C14.6757 5.85661 15.1195 6.1926 15.6388 6.27608L20.3331 6.98525C20.9425 7.10617 21.436 7.55232 21.6176 8.14643C21.7992 8.74053 21.6395 9.38636 21.2019 9.82732L17.8344 13.2396C17.4536 13.6324 17.2828 14.1831 17.3745 14.7225L18.1733 19.5639C18.302 20.1641 18.0747 20.7848 17.589 21.1601C17.1033 21.5355 16.4453 21.5988 15.897 21.3229L11.6545 19.0071C11.2034 18.7579 10.6559 18.7579 10.2048 19.0071L5.9632 21.3247C5.41485 21.6006 4.75686 21.5373 4.27116 21.1619C3.78545 20.7866 3.55823 20.1659 3.68685 19.5657L4.48568 14.7243C4.57739 14.1849 4.40656 13.6342 4.02575 13.2414L0.657405 9.82732C0.219804 9.38636 0.0600713 8.74053 0.241675 8.14643C0.423279 7.55232 0.916808 7.10617 1.52616 6.98525L6.22051 6.27608C6.73974 6.1926 7.18358 5.85661 7.40485 5.37953L9.52161 0.921871C9.76709 0.363948 10.3186 0.00341366 10.9282 0.00244337C11.5377 0.00147307 12.0904 0.360249 12.3377 0.917388Z" fill="#F73B50"/>
<path d="M17.8356 13.2388C17.4543 13.6322 17.2814 14.1827 17.3694 14.7235L18.1763 19.5649C18.3055 20.1662 18.0782 20.7883 17.5918 21.1647C17.1053 21.5412 16.4461 21.6051 15.8964 21.3293L11.6548 19.0072C11.203 18.7633 10.6587 18.7633 10.2069 19.0072L5.96798 21.3311C5.41826 21.6069 4.75902 21.543 4.2726 21.1665C3.78619 20.7901 3.55888 20.168 3.68805 19.5666L3.86736 18.498C14.5184 12.0553 12.8598 3.3283 11.8915 0.337402C12.0821 0.495455 12.2352 0.693893 12.3398 0.918368L14.452 5.37961C14.6778 5.8557 15.1227 6.19076 15.6427 6.27616L20.3325 6.98623C20.9418 7.10673 21.4353 7.55264 21.6167 8.14656C21.7982 8.74048 21.6382 9.38607 21.2004 9.82651L17.8356 13.2388Z" fill="#F73B50"/>
<path d="M40.829 39.4125L47.5352 33.8001C48.6417 32.8708 50.2831 32.9749 51.2633 34.0366C52.2435 35.0983 52.2166 36.7428 51.2021 37.7718L40.0131 49.167C39.3815 49.8075 38.5274 50.18 37.6283 50.2069H21.4366C20.291 50.2087 19.1563 50.4277 18.0924 50.8525L15.2414 52.0001H0V50.2069C0 50.2069 4.48276 46.6207 6.27586 44.8276C13.4483 37.6552 18.8007 36.7587 22.3869 36.7587C23.8397 36.7535 25.2483 37.2579 26.3676 38.1842C26.6754 38.4292 27.0591 38.5592 27.4524 38.5518H36.6869C37.2262 38.6283 37.748 38.7982 38.229 39.0538C38.3681 39.1517 38.5 39.2596 38.6235 39.3766C38.9703 39.7299 39.223 40.1646 39.3586 40.6407L40.829 39.4125Z" fill="#222443"/>
<path d="M41.2343 41.0441C41.3045 42.0283 40.9599 42.997 40.284 43.7158C39.5966 44.4291 38.6477 44.8307 37.6571 44.8275H27.795C27.2998 44.8275 26.8984 44.4261 26.8984 43.931C26.8984 43.4358 27.2998 43.0344 27.795 43.0344H37.6571C38.1571 43.04 38.6372 42.8388 38.984 42.4786C39.3175 42.1206 39.4865 41.6396 39.4502 41.1517C39.4341 40.9792 39.4042 40.8083 39.3605 40.6406C39.3515 40.6406 40.8309 39.4124 40.8309 39.4124C41.0675 39.9258 41.2044 40.4795 41.2343 41.0441Z" fill="white"/>
<path d="M44.167 2.33136L45.4016 4.93136C45.5303 5.21053 45.7894 5.40745 46.0928 5.45674L48.8318 5.87094C49.1859 5.94334 49.4721 6.20368 49.5776 6.54944C49.683 6.89519 49.5909 7.27093 49.3374 7.52867L47.3731 9.51901C47.1505 9.74796 47.0506 10.0694 47.1041 10.3842L47.5694 13.2092C47.6445 13.5593 47.512 13.9215 47.2287 14.1405C46.9454 14.3595 46.5616 14.3965 46.2416 14.2358L43.7681 12.8829C43.5047 12.7385 43.1859 12.7385 42.9226 12.8829L40.4481 14.2358C40.1282 14.3965 39.7444 14.3595 39.4611 14.1405C39.1778 13.9215 39.0453 13.5593 39.1203 13.2092L39.5865 10.3842C39.6396 10.0694 39.5398 9.74819 39.3176 9.51901L37.3532 7.52867C37.0998 7.27081 37.0077 6.89492 37.1134 6.54912C37.2191 6.20333 37.5055 5.94308 37.8598 5.87094L40.5978 5.45674C40.9014 5.40775 41.1606 5.21074 41.2891 4.93136L42.5236 2.33136C42.6662 2.00465 42.9889 1.79346 43.3453 1.79346C43.7018 1.79346 44.0244 2.00465 44.167 2.33136Z" fill="#AED032"/>
<path d="M47.3731 9.5163C47.1516 9.74585 47.0518 10.0668 47.1042 10.3815L47.5731 13.2056C47.6486 13.5566 47.516 13.9197 47.2321 14.1394C46.9481 14.359 46.5633 14.3961 46.2426 14.2348L43.7663 12.8793C43.5028 12.7367 43.1852 12.7367 42.9217 12.8793L40.4491 14.2348C40.1284 14.3961 39.7435 14.359 39.4596 14.1394C39.1756 13.9197 39.043 13.5566 39.1186 13.2056L39.2235 12.5825C45.4357 8.82595 44.4692 3.73444 43.9044 1.98975C44.0148 2.08236 44.1035 2.19804 44.1644 2.32864L45.398 4.93133C45.5299 5.20899 45.7895 5.40432 46.0929 5.45402L48.8282 5.86823C49.1822 5.94057 49.4682 6.20064 49.5739 6.54611C49.6795 6.89159 49.5878 7.26716 49.3348 7.52506L47.3731 9.5163Z" fill="#AED032"/>
<path d="M8.93177 33.3086C10.6856 32.3675 11.737 30.9143 11.28 30.0628C10.8231 29.2114 9.03097 29.284 7.27714 30.2252C5.52332 31.1663 4.47196 32.6195 4.92887 33.4709C5.38578 34.3224 7.17794 34.2498 8.93177 33.3086Z" fill="#D7F6FF"/>
<path d="M51.5527 21.3354C51.7977 20.2989 51.1561 19.26 50.1195 19.015C49.083 18.77 48.0441 19.4116 47.7991 20.4482C47.5541 21.4847 48.1957 22.5236 49.2323 22.7686C50.2688 23.0136 51.3077 22.372 51.5527 21.3354Z" fill="#FFD358"/>
</g>
<defs>
<clipPath id="clip0_3477_26782">
<rect width="52" height="52" fill="white"/>
</clipPath>
</defs>
</svg>
