<svg width="14" height="16" viewBox="0 0 14 16" fill="none" xmlns="http://www.w3.org/2000/svg">
<path d="M12 3.66406L11.5868 10.3475C11.4813 12.055 11.4285 12.9088 11.0005 13.5226C10.7889 13.8261 10.5164 14.0823 10.2005 14.2747C9.56141 14.6641 8.70599 14.6641 6.99516 14.6641C5.28208 14.6641 4.42554 14.6641 3.78604 14.274C3.46987 14.0812 3.19733 13.8246 2.98579 13.5206C2.55792 12.9058 2.5063 12.0508 2.40307 10.3408L2 3.66406" stroke="#E53E3E" stroke-width="1.5" stroke-linecap="round"/>
<path d="M1 3.66536H13M9.70382 3.66536L9.2487 2.72652C8.94638 2.10287 8.79522 1.79105 8.53448 1.59657C8.47664 1.55343 8.4154 1.51506 8.35135 1.48183C8.06261 1.33203 7.71608 1.33203 7.02302 1.33203C6.31255 1.33203 5.95732 1.33203 5.66379 1.48811C5.59873 1.5227 5.53666 1.56263 5.4782 1.60748C5.21443 1.80983 5.06709 2.13307 4.7724 2.77954L4.36862 3.66536" stroke="#E53E3E" stroke-width="1.5" stroke-linecap="round"/>
<path d="M5.33203 11L5.33203 7" stroke="#E53E3E" stroke-width="1.5" stroke-linecap="round"/>
<path d="M8.66797 11L8.66797 7" stroke="#E53E3E" stroke-width="1.5" stroke-linecap="round"/>
</svg>
