<svg width="57" height="56" viewBox="0 0 57 56" fill="none" xmlns="http://www.w3.org/2000/svg">
<g clip-path="url(#clip0_3477_26816)">
<path d="M22.6489 23.9771C20.856 24.2483 19.1909 23.1326 18.9298 21.485L17.48 11.784C17.2189 10.1365 18.4606 8.58103 20.2534 8.30989C22.0462 8.03874 23.7112 9.1544 23.9723 10.802L25.4221 20.503C25.6834 22.1505 24.4417 23.7059 22.6489 23.9771Z" fill="#D7F6FF"/>
<path d="M41.5835 24.6276C43.3606 24.7955 44.9632 23.6046 45.1631 21.9675L46.2532 12.3333C46.453 10.6963 45.1743 9.23312 43.3973 9.0651C41.6202 8.89719 40.0176 10.0881 39.8177 11.7251L38.7276 21.3594C38.5277 22.9964 39.8065 24.4595 41.5835 24.6276Z" fill="#F73B50"/>
<path d="M49.7437 30.5494C51.3729 30.9234 52.9401 30.1525 53.2443 28.8274L54.9553 21.0179C55.2595 19.693 54.1854 18.3156 52.5562 17.9416C50.927 17.5675 49.3597 18.3384 49.0555 19.6635L47.3445 27.473C47.0404 28.798 48.1145 30.1753 49.7437 30.5494Z" fill="#AED032"/>
<path d="M32.6025 21.3028C30.7892 21.3299 29.2973 19.8819 29.2701 18.0686L28.9965 6.9699C28.9694 5.1566 30.4173 3.66469 32.2306 3.63758C34.0439 3.61048 35.5358 5.05843 35.5629 6.87173L35.8366 17.9705C35.8636 19.7838 34.4157 21.2757 32.6025 21.3028Z" fill="#FFD358"/>
<path d="M36.7444 55.0162L24.2562 54.1459C20.8126 53.9059 18.2374 50.5993 18.0537 46.619C18.0005 45.4646 18.6738 44.4007 19.7248 43.9201C20.9794 43.3465 37.3555 51.8621 38.1041 41.1313C38.2898 38.4703 31.5167 36.426 29.4255 36.1124C24.2194 35.3314 21.8481 31.5271 26.738 29.7087L39.5498 30.7543C43.2824 31.059 46.0209 34.9888 45.6644 39.529L45.1374 46.239C44.7324 51.3973 40.9891 55.312 36.7444 55.0162Z" fill="#222443"/>
<path d="M17.358 36.0548L15.9481 37.5438C14.6992 38.8625 12.6179 38.9192 11.299 37.6705L7.25785 33.8436C5.93913 32.5947 5.88239 30.5133 7.13114 29.1945L8.54109 27.7056C9.78995 26.3869 11.8713 26.3301 13.19 27.579L17.2312 31.4058C18.55 32.6546 18.6068 34.7361 17.358 36.0548Z" fill="#AED032"/>
<path d="M5.1339 7.89185L6.12627 10.6823C6.1688 10.8017 6.25286 10.8965 6.35896 10.9443L8.83818 12.0613C9.18843 12.2191 9.18843 12.7771 8.83818 12.935L6.35896 14.052C6.25275 14.0998 6.16869 14.1944 6.12627 14.314L5.1339 17.1044C4.99376 17.4987 4.49785 17.4987 4.3577 17.1044L3.36533 14.314C3.32281 14.1944 3.23874 14.0998 3.13253 14.052L0.653316 12.935C0.303061 12.7772 0.303061 12.2192 0.653316 12.0613L3.13253 10.9443C3.23874 10.8965 3.32281 10.8019 3.36533 10.6823L4.3577 7.89185C4.49796 7.49764 4.99376 7.49764 5.1339 7.89185Z" fill="#FFD358"/>
<path d="M53.4481 1.18741L54.1842 3.25731C54.2158 3.34589 54.2781 3.41619 54.3569 3.45166L56.196 4.2802C56.4558 4.39721 56.4558 4.81125 56.196 4.92826L54.3569 5.7568C54.2781 5.79227 54.2158 5.86246 54.1842 5.95115L53.4481 8.02105C53.3441 8.31347 52.9764 8.31347 52.8724 8.02105L52.1363 5.95115C52.1048 5.86257 52.0423 5.79227 51.9636 5.7568L50.1245 4.92826C49.8647 4.81125 49.8647 4.39721 50.1245 4.2802L51.9636 3.45166C52.0424 3.41619 52.1048 3.346 52.1363 3.25731L52.8724 1.18741C52.9763 0.894887 53.3441 0.894887 53.4481 1.18741Z" fill="#FFD358"/>
<path d="M56.1555 43.5203C56.4291 42.3629 55.7127 41.2028 54.5552 40.9292C53.3978 40.6556 52.2377 41.3721 51.9641 42.5295C51.6905 43.687 52.407 44.847 53.5645 45.1206C54.7219 45.3942 55.882 44.6777 56.1555 43.5203Z" fill="#FFD358"/>
<path d="M11.8198 5.34556C12.3329 5.34556 12.7489 4.92957 12.7489 4.41643C12.7489 3.90329 12.3329 3.4873 11.8198 3.4873C11.3066 3.4873 10.8906 3.90329 10.8906 4.41643C10.8906 4.92957 11.3066 5.34556 11.8198 5.34556Z" fill="#FFD358"/>
</g>
<defs>
<clipPath id="clip0_3477_26816">
<rect width="56" height="56" fill="white" transform="translate(0.390625)"/>
</clipPath>
</defs>
</svg>
