<svg width="100" height="100" viewBox="0 0 100 100" fill="none" xmlns="http://www.w3.org/2000/svg">
<g clip-path="url(#clip0_3892_10634)">
<circle cx="30" cy="37" r="25" fill="url(#paint0_linear_3892_10634)"/>
<g filter="url(#filter0_b_3892_10634)">
<path fill-rule="evenodd" clip-rule="evenodd" d="M88.3346 49.9994C88.3346 68.4088 73.4108 83.3327 55.0013 83.3327C36.5918 83.3327 21.668 68.4088 21.668 49.9994C21.668 31.5899 36.5918 16.666 55.0013 16.666C73.4108 16.666 88.3346 31.5899 88.3346 49.9994Z" fill="#C72929" fill-opacity="0.35"/>
<path fill-rule="evenodd" clip-rule="evenodd" d="M88.3346 49.9994C88.3346 68.4088 73.4108 83.3327 55.0013 83.3327C36.5918 83.3327 21.668 68.4088 21.668 49.9994C21.668 31.5899 36.5918 16.666 55.0013 16.666C73.4108 16.666 88.3346 31.5899 88.3346 49.9994Z" stroke="url(#paint1_linear_3892_10634)" stroke-linecap="round"/>
</g>
<g filter="url(#filter1_d_3892_10634)">
<path fill-rule="evenodd" clip-rule="evenodd" d="M55.0013 44.1654C56.382 44.1654 57.5013 45.2847 57.5013 46.6654V66.6654C57.5013 68.0461 56.382 69.1654 55.0013 69.1654C53.6206 69.1654 52.5013 68.0461 52.5013 66.6654V46.6654C52.5013 45.2847 53.6206 44.1654 55.0013 44.1654ZM55.0013 39.9987C56.8423 39.9987 58.3346 38.5063 58.3346 36.6654C58.3346 34.8244 56.8423 33.332 55.0013 33.332C53.1604 33.332 51.668 34.8244 51.668 36.6654C51.668 38.5063 53.1604 39.9987 55.0013 39.9987Z" fill="url(#paint2_linear_3892_10634)"/>
</g>
</g>
<defs>
<filter id="filter0_b_3892_10634" x="-2.83203" y="-7.83398" width="115.668" height="115.666" filterUnits="userSpaceOnUse" color-interpolation-filters="sRGB">
<feFlood flood-opacity="0" result="BackgroundImageFix"/>
<feGaussianBlur in="BackgroundImageFix" stdDeviation="12"/>
<feComposite in2="SourceAlpha" operator="in" result="effect1_backgroundBlur_3892_10634"/>
<feBlend mode="normal" in="SourceGraphic" in2="effect1_backgroundBlur_3892_10634" result="shape"/>
</filter>
<filter id="filter1_d_3892_10634" x="48.4121" y="30.0762" width="19.6913" height="48.8573" filterUnits="userSpaceOnUse" color-interpolation-filters="sRGB">
<feFlood flood-opacity="0" result="BackgroundImageFix"/>
<feColorMatrix in="SourceAlpha" type="matrix" values="0 0 0 0 0 0 0 0 0 0 0 0 0 0 0 0 0 0 127 0" result="hardAlpha"/>
<feOffset dx="3.25583" dy="3.25583"/>
<feGaussianBlur stdDeviation="3.25583"/>
<feColorMatrix type="matrix" values="0 0 0 0 0.8 0 0 0 0 0.156863 0 0 0 0 0.32549 0 0 0 0.5 0"/>
<feBlend mode="normal" in2="BackgroundImageFix" result="effect1_dropShadow_3892_10634"/>
<feBlend mode="normal" in="SourceGraphic" in2="effect1_dropShadow_3892_10634" result="shape"/>
</filter>
<linearGradient id="paint0_linear_3892_10634" x1="5" y1="62" x2="56.0654" y2="13.1129" gradientUnits="userSpaceOnUse">
<stop stop-color="#FF7070"/>
<stop offset="0.255" stop-color="#EA3636"/>
</linearGradient>
<linearGradient id="paint1_linear_3892_10634" x1="21.668" y1="16.666" x2="88.3684" y2="83.2989" gradientUnits="userSpaceOnUse">
<stop stop-color="white" stop-opacity="0.25"/>
<stop offset="1" stop-color="white" stop-opacity="0"/>
</linearGradient>
<linearGradient id="paint2_linear_3892_10634" x1="55.0574" y1="76.7994" x2="72.5189" y2="73.6149" gradientUnits="userSpaceOnUse">
<stop stop-color="white"/>
<stop offset="1" stop-color="white" stop-opacity="0.2"/>
</linearGradient>
<clipPath id="clip0_3892_10634">
<rect width="100" height="100" fill="white"/>
</clipPath>
</defs>
</svg>
