<svg width="43" height="44" viewBox="0 0 43 44" fill="none" xmlns="http://www.w3.org/2000/svg">
<g clip-path="url(#clip0_4011_9453)">
<path d="M19.5616 18.531C18.5677 18.2384 17.9748 17.2585 18.2374 16.3422L19.8293 10.968C20.092 10.0517 21.1107 9.54603 22.1046 9.83857C23.0986 10.1311 23.6914 11.111 23.4288 12.0273L21.8369 17.4015C21.5743 18.3178 20.5556 18.8234 19.5616 18.531Z" fill="#066FE2"/>
<path d="M29.2081 23.4406C30.0879 23.9567 31.2054 23.727 31.7043 22.9274L34.5955 18.2012C35.0943 17.4017 34.7854 16.3351 33.9057 15.8189C33.0259 15.3028 31.9083 15.5326 31.4095 16.3321L28.5183 21.0583C28.0195 21.8578 28.3283 22.9244 29.2081 23.4406Z" fill="#066FE2"/>
<path d="M32.0063 28.4779C32.7598 29.0651 33.7576 29.0443 34.2352 28.4315L37.0072 24.8003C37.4847 24.1875 37.2611 23.2148 36.5077 22.6277C35.7542 22.0405 34.7564 22.0613 34.2788 22.6741L31.5067 26.3053C31.0293 26.9181 31.2529 27.8908 32.0063 28.4779Z" fill="#066FE2"/>
<path d="M25.3594 19.5492C24.4137 19.1253 23.9907 18.0151 24.4146 17.0695L26.9532 11.2555C27.377 10.3098 28.4872 9.88687 29.4329 10.3107C30.3785 10.7346 30.8015 11.8448 30.3776 12.7904L27.839 18.6044C27.4151 19.55 26.3049 19.973 25.3594 19.5492Z" fill="#066FE2"/>
<path d="M19.3626 38.0096L13.1052 34.543C11.3797 33.5871 10.8446 31.2527 11.7107 29.147C11.962 28.5363 12.5676 28.1479 13.2279 28.1529C14.0162 28.1588 20.4407 36.5237 23.4199 31.1471C24.1587 29.8138 21.1447 27.1195 20.1374 26.452C17.6298 24.7903 17.3204 22.2474 20.292 22.4866L26.6746 26.1221C28.5341 27.1813 29.0033 29.8778 27.7223 32.1431L25.8289 35.4909C24.3734 38.0645 21.4894 39.1879 19.3626 38.0096Z" fill="#066FE2"/>
<path d="M13.9047 23.5078L12.8149 23.9384C11.8497 24.3198 10.7581 23.8465 10.3766 22.8813L9.20792 19.9234C8.82656 18.9582 9.29982 17.8666 10.265 17.4852L11.3548 17.0545C12.32 16.6732 13.4116 17.1464 13.793 18.1117L14.9617 21.0695C15.3432 22.0347 14.8699 23.1264 13.9047 23.5078Z" fill="#066FE2"/>
</g>
<defs>
<clipPath id="clip0_4011_9453">
<rect width="32" height="32" fill="white" transform="translate(13.8242 0.738159) rotate(25)"/>
</clipPath>
</defs>
</svg>
