<svg width="94" height="93" viewBox="0 0 94 93" fill="none" xmlns="http://www.w3.org/2000/svg">
<rect x="2.02422" y="1.99985" width="88" height="88" rx="44" transform="matrix(1 0 0.0121088 0.999927 0.862503 0.503565)" stroke="#066FE2" stroke-width="4"/>
<g clip-path="url(#clip0_4296_1516)">
<path d="M45.4484 43.031C44.4544 42.7384 43.8615 41.7585 44.1241 40.8422L45.716 35.468C45.9787 34.5517 46.9974 34.046 47.9913 34.3386C48.9853 34.6311 49.5782 35.611 49.3155 36.5273L47.7236 41.9015C47.461 42.8178 46.4423 43.3234 45.4484 43.031Z" fill="#066FE2"/>
<path d="M55.0948 47.9406C55.9746 48.4567 57.0922 48.227 57.591 47.4274L60.4822 42.7012C60.981 41.9017 60.6721 40.8351 59.7924 40.3189C58.9126 39.8028 57.795 40.0326 57.2962 40.8321L54.405 45.5583C53.9062 46.3578 54.2151 47.4244 55.0948 47.9406Z" fill="#066FE2"/>
<path d="M57.8931 52.9779C58.6465 53.5651 59.6443 53.5443 60.1219 52.9315L62.8939 49.3003C63.3714 48.6875 63.1478 47.7148 62.3944 47.1277C61.641 46.5405 60.6431 46.5613 60.1656 47.1741L57.3935 50.8053C56.916 51.4181 57.1397 52.3908 57.8931 52.9779Z" fill="#066FE2"/>
<path d="M51.2461 44.0492C50.3004 43.6253 49.8775 42.5151 50.3013 41.5695L52.8399 35.7555C53.2638 34.8098 54.3739 34.3869 55.3196 34.8107C56.2652 35.2346 56.6882 36.3448 56.2643 37.2904L53.7257 43.1044C53.3018 44.05 52.1917 44.473 51.2461 44.0492Z" fill="#066FE2"/>
<path d="M45.2493 62.5096L38.9919 59.043C37.2665 58.0871 36.7313 55.7527 37.5974 53.647C37.8487 53.0363 38.4543 52.6479 39.1147 52.6529C39.9029 52.6588 46.3275 61.0237 49.3066 55.6471C50.0454 54.3138 47.0314 51.6195 46.0241 50.952C43.5165 49.2903 43.2072 46.7474 46.1787 46.9866L52.5613 50.6221C54.4208 51.6813 54.8901 54.3778 53.609 56.6431L51.7156 59.9909C50.2601 62.5645 47.3762 63.6879 45.2493 62.5096Z" fill="#066FE2"/>
<path d="M39.7914 48.0078L38.7016 48.4384C37.7364 48.8198 36.6448 48.3465 36.2633 47.3813L35.0946 44.4234C34.7133 43.4582 35.1865 42.3666 36.1517 41.9852L37.2415 41.5545C38.2067 41.1732 39.2984 41.6464 39.6797 42.6117L40.8485 45.5695C41.2299 46.5347 40.7566 47.6264 39.7914 48.0078Z" fill="#066FE2"/>
</g>
<defs>
<clipPath id="clip0_4296_1516">
<rect width="32" height="32" fill="white" transform="translate(39.7109 25.2382) rotate(25)"/>
</clipPath>
</defs>
</svg>
