<svg width="200" height="201" viewBox="0 0 200 201" fill="none" xmlns="http://www.w3.org/2000/svg">
<path d="M128.573 24.7015V89.5943H71.4297V24.7015L100.001 5.66577L128.573 24.7015Z" fill="#FFD358"/>
<path d="M128.573 24.7015V89.5943H71.4297V24.7015L100.001 5.66577L128.573 24.7015Z" fill="#F6C464"/>
<path d="M100.001 71.7372C108.877 71.7372 116.073 64.5418 116.073 55.6658C116.073 46.7898 108.877 39.5944 100.001 39.5944C91.1251 39.5944 83.9297 46.7898 83.9297 55.6658C83.9297 64.5418 91.1251 71.7372 100.001 71.7372Z" fill="#FFD358"/>
<path d="M128.573 24.7015V34.7372L100.001 15.6658L71.4297 34.7372V24.7015L100.001 5.66577L128.573 24.7015Z" fill="#FFD358"/>
<path d="M0 186.023H200V200.309H0V186.023Z" fill="#222443"/>
<path d="M14.2891 114.594H185.718V186.023H14.2891V114.594Z" fill="#F6C464"/>
<path d="M139.289 143.166V161.023C139.289 164.969 142.485 168.166 146.432 168.166H164.289C168.235 168.166 171.432 164.969 171.432 161.023V143.166C171.432 139.219 168.235 136.023 164.289 136.023H146.432C142.485 136.023 139.289 139.219 139.289 143.166Z" fill="#FFD358"/>
<path d="M28.5742 143.166V161.023C28.5742 164.969 31.7706 168.166 35.7171 168.166H53.5742C57.5206 168.166 60.7171 164.969 60.7171 161.023V143.166C60.7171 139.219 57.5206 136.023 53.5742 136.023H35.7171C31.7706 136.023 28.5742 139.219 28.5742 143.166Z" fill="#FFD358"/>
<path d="M14.2891 114.594H185.718V121.737H14.2891V114.594Z" fill="#FFD358"/>
<path d="M11.4227 88.1443L0.312017 113.144C-0.737983 115.505 0.990589 118.166 3.5763 118.166H196.426C199.012 118.166 200.741 115.505 199.691 113.144L188.58 88.1443C188.005 86.855 186.726 86.0228 185.316 86.0228H14.687C13.2763 86.0228 11.9977 86.855 11.4227 88.1443Z" fill="#222443"/>
<path d="M21.4297 96.7372C21.4297 98.7086 23.0297 100.309 25.0011 100.309H32.144C34.1154 100.309 35.7154 98.7086 35.7154 96.7372C35.7154 94.7658 34.1154 93.1658 32.144 93.1658H25.0011C23.0297 93.1658 21.4297 94.7658 21.4297 96.7372Z" fill="white"/>
<path d="M57.1445 107.452C57.1445 109.423 58.7445 111.023 60.716 111.023H67.8588C69.8302 111.023 71.4302 109.423 71.4302 107.452C71.4302 105.48 69.8302 103.88 67.8588 103.88H60.716C58.7445 103.88 57.1445 105.48 57.1445 107.452Z" fill="white"/>
<path d="M100 100.309C100 102.28 101.6 103.88 103.571 103.88H110.714C112.686 103.88 114.286 102.28 114.286 100.309C114.286 98.3374 112.686 96.7374 110.714 96.7374H103.571C101.6 96.7374 100 98.3374 100 100.309Z" fill="white"/>
<path d="M128.574 96.7374C128.574 98.7089 130.174 100.309 132.146 100.309H139.289C141.26 100.309 142.86 98.7089 142.86 96.7374C142.86 94.766 141.26 93.166 139.289 93.166H132.146C130.174 93.166 128.574 94.766 128.574 96.7374Z" fill="white"/>
<path d="M167.859 107.452C167.859 109.423 169.459 111.023 171.431 111.023H178.574C180.545 111.023 182.145 109.423 182.145 107.452C182.145 105.48 180.545 103.88 178.574 103.88H171.431C169.459 103.88 167.859 105.48 167.859 107.452Z" fill="white"/>
<path d="M139.886 38.6943L100 12.105L60.1145 38.6943C57.6502 40.3372 54.3252 39.6693 52.686 37.2086C51.0431 34.7479 51.7109 31.4229 54.1717 29.78L97.0288 1.20859C98.8288 0.0085938 101.172 0.0085938 102.972 1.20859L145.829 29.78C148.29 31.4229 148.957 34.7479 147.315 37.2086C145.672 39.6764 142.336 40.3336 139.886 38.6943Z" fill="#222443"/>
<path d="M200 168.166V186.023H175V175.309C175 173.344 176.607 171.737 178.571 171.737C180.536 171.737 182.143 173.344 182.143 175.309V171.737C182.143 169.773 183.75 168.166 185.714 168.166C187.679 168.166 189.286 169.773 189.286 171.737V175.309C189.286 173.344 190.893 171.737 192.857 171.737C194.821 171.737 196.429 173.344 196.429 175.309V171.737C196.429 169.773 198.036 168.166 200 168.166Z" fill="#AED032"/>
<path d="M0 168.166V186.023H25V175.309C25 173.344 23.3929 171.737 21.4286 171.737C19.4643 171.737 17.8571 173.344 17.8571 175.309V171.737C17.8571 169.773 16.25 168.166 14.2857 168.166C12.3214 168.166 10.7143 169.773 10.7143 171.737V175.309C10.7143 173.344 9.10714 171.737 7.14286 171.737C5.17857 171.737 3.57143 173.344 3.57143 175.309V171.737C3.57143 169.773 1.96429 168.166 0 168.166Z" fill="#AED032"/>
<path d="M100.001 68.1657C108.877 68.1657 116.073 60.9703 116.073 52.0943C116.073 43.2183 108.877 36.0228 100.001 36.0228C91.1251 36.0228 83.9297 43.2183 83.9297 52.0943C83.9297 60.9703 91.1251 68.1657 100.001 68.1657Z" fill="#222443"/>
<path d="M100.003 61.0229C104.934 61.0229 108.931 57.0255 108.931 52.0943C108.931 47.1632 104.934 43.1658 100.003 43.1658C95.0717 43.1658 91.0742 47.1632 91.0742 52.0943C91.0742 57.0255 95.0717 61.0229 100.003 61.0229Z" fill="white"/>
<path d="M108.931 52.0943C108.931 52.7015 108.86 53.3086 108.753 53.8801C107.931 49.8086 104.324 46.7372 100.003 46.7372C95.6814 46.7372 92.0742 49.8086 91.2528 53.8801C91.1456 53.3086 91.0742 52.7015 91.0742 52.0943C91.0742 47.1658 95.0742 43.1658 100.003 43.1658C104.931 43.1658 108.931 47.1658 108.931 52.0943Z" fill="white"/>
<path d="M75 186.023V139.594C75 135.648 78.1964 132.451 82.1429 132.451H117.857C121.804 132.451 125 135.648 125 139.594V186.023H75Z" fill="white"/>
<path d="M82.1445 139.594H117.859V186.023H82.1445V139.594Z" fill="#E95444"/>
<path d="M139.289 139.594V157.451C139.289 161.398 142.485 164.594 146.432 164.594H164.289C168.235 164.594 171.432 161.398 171.432 157.451V139.594C171.432 135.648 168.235 132.451 164.289 132.451H146.432C142.485 132.451 139.289 135.648 139.289 139.594Z" fill="#222443"/>
<path d="M146.43 139.594H164.287V157.452H146.43V139.594Z" fill="white"/>
<path d="M28.5742 139.594V157.451C28.5742 161.398 31.7706 164.594 35.7171 164.594H53.5742C57.5206 164.594 60.7171 161.398 60.7171 157.451V139.594C60.7171 135.648 57.5206 132.451 53.5742 132.451H35.7171C31.7706 132.451 28.5742 135.648 28.5742 139.594Z" fill="#222443"/>
<path d="M35.7148 139.594H53.572V157.452H35.7148V139.594Z" fill="white"/>
<path d="M146.43 139.594H164.287V143.166H146.43V139.594Z" fill="white"/>
<path d="M35.7148 139.594H53.572V143.166H35.7148V139.594Z" fill="white"/>
<path d="M175.003 36.0228H167.86C165.885 36.0228 164.289 37.6228 164.289 39.5943C164.289 41.5657 165.885 43.1657 167.86 43.1657H175.003C176.978 43.1657 178.575 41.5657 178.575 39.5943C178.575 37.6228 176.978 36.0228 175.003 36.0228Z" fill="#9A72FF"/>
<path d="M165.332 15.6406L160.282 20.6906C158.885 22.087 158.885 24.3442 160.282 25.7406C161.678 27.137 163.935 27.137 165.332 25.7406L170.382 20.6906C171.778 19.2942 171.778 17.037 170.382 15.6406C168.985 14.2442 166.728 14.2442 165.332 15.6406Z" fill="#F6C464"/>
<path d="M160.282 53.4478C158.885 54.8443 158.885 57.1014 160.282 58.4978L165.332 63.5478C166.728 64.9443 168.985 64.9443 170.382 63.5478C171.778 62.1514 171.778 59.8943 170.382 58.4978L165.332 53.4478C163.935 52.0514 161.678 52.0514 160.282 53.4478Z" fill="#E95444"/>
<path d="M25.0011 36.0228H32.144C34.119 36.0228 35.7154 37.6228 35.7154 39.5943C35.7154 41.5657 34.119 43.1657 32.144 43.1657H25.0011C23.0261 43.1657 21.4297 41.5657 21.4297 39.5943C21.4297 37.6228 23.0261 36.0228 25.0011 36.0228Z" fill="#9A72FF"/>
<path d="M34.6676 15.6406L39.7176 20.6906C41.1141 22.087 41.1141 24.3442 39.7176 25.7406C38.3212 27.137 36.0641 27.137 34.6676 25.7406L29.6176 20.6906C28.2212 19.2942 28.2212 17.037 29.6176 15.6406C31.0141 14.2442 33.2712 14.2442 34.6676 15.6406Z" fill="#F6C464"/>
<path d="M39.7176 53.4478C41.1141 54.8443 41.1141 57.1014 39.7176 58.4978L34.6676 63.5478C33.2712 64.9443 31.0141 64.9443 29.6176 63.5478C28.2212 62.1514 28.2212 59.8943 29.6176 58.4978L34.6676 53.4478C36.0641 52.0514 38.3212 52.0514 39.7176 53.4478Z" fill="#E95444"/>
</svg>
