<svg width="52" height="56" viewBox="0 0 52 56" fill="none" xmlns="http://www.w3.org/2000/svg">
<path fill-rule="evenodd" clip-rule="evenodd" d="M24.9923 0.272442C25.615 -0.0908141 26.385 -0.0908141 27.0077 0.272442L33.0077 3.77244C33.9618 4.329 34.2841 5.55364 33.7276 6.50774C33.171 7.46185 31.9464 7.78412 30.9923 7.22756L26 4.31541L21.0077 7.22756C20.0536 7.78412 18.829 7.46185 18.2724 6.50774C17.7159 5.55364 18.0382 4.329 18.9923 3.77244L24.9923 0.272442ZM9.72756 11.4923C10.2841 12.4464 9.96185 13.671 9.00774 14.2276L5.96927 16L9.00774 17.7724C9.96185 18.329 10.2841 19.5536 9.72756 20.5077C9.171 21.4618 7.94636 21.7841 6.99226 21.2276L4 19.4821V22C4 23.1046 3.10457 24 2 24C0.89543 24 0 23.1046 0 22V16C0 15.2887 0.377823 14.6309 0.992258 14.2724L6.99226 10.7724C7.94636 10.2159 9.171 10.5382 9.72756 11.4923ZM42.2724 11.4923C42.829 10.5382 44.0536 10.2159 45.0077 10.7724L51.0077 14.2724C51.6222 14.6309 52 15.2887 52 16V22C52 23.1046 51.1046 24 50 24C48.8954 24 48 23.1046 48 22V19.4821L45.0077 21.2276C44.0536 21.7841 42.829 21.4618 42.2724 20.5077C41.7159 19.5536 42.0382 18.329 42.9923 17.7724L46.0307 16L42.9923 14.2276C42.0382 13.671 41.7159 12.4464 42.2724 11.4923ZM18.2724 25.4923C18.829 24.5382 20.0536 24.2159 21.0077 24.7724L26 27.6846L30.9923 24.7724C31.9464 24.2159 33.171 24.5382 33.7276 25.4923C34.2841 26.4464 33.9618 27.671 33.0077 28.2276L28 31.1487V36C28 37.1046 27.1046 38 26 38C24.8954 38 24 37.1046 24 36V31.1487L18.9923 28.2276C18.0382 27.671 17.7159 26.4464 18.2724 25.4923ZM2 32C3.10457 32 4 32.8954 4 34V38.8513L9.00774 41.7724C9.96185 42.329 10.2841 43.5536 9.72756 44.5077C9.171 45.4618 7.94636 45.7841 6.99226 45.2276L0.992258 41.7276C0.377823 41.3691 0 40.7113 0 40V34C0 32.8954 0.89543 32 2 32ZM50 32C51.1046 32 52 32.8954 52 34V40C52 40.7113 51.6222 41.3691 51.0077 41.7276L45.0077 45.2276C44.0536 45.7841 42.829 45.4618 42.2724 44.5077C41.7159 43.5536 42.0382 42.329 42.9923 41.7724L48 38.8513V34C48 32.8954 48.8954 32 50 32ZM26 46C27.1046 46 28 46.8954 28 48V50.5179L30.9923 48.7724C31.9464 48.2159 33.171 48.5382 33.7276 49.4923C34.2841 50.4464 33.9618 51.671 33.0077 52.2276L27.0077 55.7276C26.385 56.0908 25.615 56.0908 24.9923 55.7276L18.9923 52.2276C18.0382 51.671 17.7159 50.4464 18.2724 49.4923C18.829 48.5382 20.0536 48.2159 21.0077 48.7724L24 50.5179V48C24 46.8954 24.8954 46 26 46Z" fill="#0F172A"/>
</svg>
