<svg width="65" height="64" viewBox="0 0 65 64" fill="none" xmlns="http://www.w3.org/2000/svg">
<g clip-path="url(#clip0_1334_94346)">
<path d="M23.3594 28.4844L30.3906 26.7266L27.1446 23.2109L23.3594 21.4531C22.3886 21.4531 19.8438 23.998 19.8438 24.9688C19.8438 25.9395 22.3886 28.4844 23.3594 28.4844Z" fill="white"/>
<path d="M37.4219 28.4844L30.3906 26.7266L33.6366 23.2109L37.4219 21.4531C38.3927 21.4531 40.9375 23.998 40.9375 24.9688C40.9375 25.9395 38.3927 28.4844 37.4219 28.4844Z" fill="white"/>
<path d="M30.3906 26.7266L33.9062 35.5157L30.3906 42.9688C29.4413 43.7773 28.2109 44.3047 26.875 44.3047H21.285C17.9102 44.3047 14.6055 43.0391 12.1093 40.7891H5.78125C4.79676 40.7891 3.90625 40.0155 3.90625 39.0313V30.2422C3.90625 28.3005 5.59738 26.7266 7.53906 26.7266H12.0741L20.3711 18.4648C21.0391 17.7617 22.1638 17.7617 22.8319 18.4648L27.1446 23.211H23.3594C22.3749 23.211 21.6016 23.9843 21.6016 24.9688C21.6016 25.953 22.3749 26.7266 23.3594 26.7266H30.3906Z" fill="#222443"/>
<path d="M53.2422 26.7266C55.1839 26.7266 56.875 28.3005 56.875 30.2422V39.0313C56.875 40.0155 55.9845 40.7891 55 40.7891H48.6719C46.1757 43.0391 42.871 44.3047 39.4961 44.3047H33.9062C32.5703 44.3047 31.34 43.7773 30.3906 42.9688V26.7266H37.4219C38.4064 26.7266 39.1797 25.953 39.1797 24.9688C39.1797 23.9843 38.4064 23.211 37.4219 23.211H33.6366L37.9492 18.4648C38.6172 17.7617 39.742 17.7617 40.41 18.4648L48.7071 26.7266H53.2422Z" fill="#222443"/>
<path d="M30.3906 12.6641C29.419 12.6641 28.6328 11.8779 28.6328 10.9062V7.39062C28.6328 6.41902 29.419 5.63281 30.3906 5.63281C31.3622 5.63281 32.1484 6.41902 32.1484 7.39062V10.9062C32.1484 11.8779 31.3622 12.6641 30.3906 12.6641Z" fill="#D7F6FF"/>
<path d="M30.3906 58.3672C29.419 58.3672 28.6328 57.581 28.6328 56.6094V53.0938C28.6328 52.1221 29.419 51.3359 30.3906 51.3359C31.3622 51.3359 32.1484 52.1221 32.1484 53.0938V56.6094C32.1484 57.581 31.3622 58.3672 30.3906 58.3672Z" fill="#D7F6FF"/>
<path d="M20.723 15.2547C19.8782 15.7397 18.8022 15.4492 18.3231 14.611L16.5653 11.5674C16.0778 10.7262 16.3662 9.6516 17.2074 9.16586C18.045 8.68351 19.1231 8.965 19.6072 9.80957L21.365 12.8532C21.8525 13.6943 21.5641 14.7689 20.723 15.2547Z" fill="#FFD358"/>
<path d="M41.1747 54.1903L39.4168 51.1467C38.9293 50.3055 39.2177 49.2309 40.0589 48.7451C40.9001 48.261 41.9747 48.5425 42.4588 49.3889L44.2166 52.4325C44.7041 53.2736 44.4157 54.3482 43.5745 54.834C42.7296 55.319 41.6537 55.0286 41.1747 54.1903Z" fill="#FFD358"/>
<path d="M40.0589 15.254C39.2177 14.7681 38.9293 13.6936 39.4168 12.8524L41.1747 9.80884C41.6588 8.96603 42.7368 8.68795 43.5745 9.16513C44.4157 9.65099 44.7041 10.7255 44.2166 11.5667L42.4588 14.6102C41.9802 15.4477 40.9049 15.7397 40.0589 15.254Z" fill="#FFD358"/>
<path d="M17.2074 54.8342C16.3662 54.3484 16.0778 53.2739 16.5653 52.4327L18.3231 49.3891C18.8072 48.5445 19.8886 48.2665 20.723 48.7454C21.5641 49.2313 21.8525 50.3058 21.365 51.1469L19.6072 54.1905C19.1286 55.0278 18.0533 55.3199 17.2074 54.8342Z" fill="#FFD358"/>
<path d="M7.53906 42.5469C7.53906 43.5185 6.75285 44.3047 5.78125 44.3047H2.14844C1.17684 44.3047 0.390625 43.5185 0.390625 42.5469V28.4844C0.390625 27.5128 1.17684 26.7266 2.14844 26.7266H7.53906V42.5469Z" fill="#AED032"/>
<path d="M60.3906 42.5469C60.3906 43.5185 59.6044 44.3047 58.6328 44.3047H55C54.0284 44.3047 53.2422 43.5185 53.2422 42.5469V26.7266H58.6328C59.6044 26.7266 60.3906 27.5128 60.3906 28.4844V42.5469Z" fill="#F73B50"/>
<path d="M32.1484 10.9062V7.39062C32.1484 6.41902 31.3622 5.63281 30.3906 5.63281V12.6641C31.3622 12.6641 32.1484 11.8779 32.1484 10.9062Z" fill="#D7F6FF"/>
<path d="M32.1484 56.6094V53.0938C32.1484 52.1221 31.3622 51.3359 30.3906 51.3359V58.3672C31.3622 58.3672 32.1484 57.581 32.1484 56.6094Z" fill="#D7F6FF"/>
</g>
<defs>
<clipPath id="clip0_1334_94346">
<rect width="60" height="60" fill="white" transform="translate(0.390625 2)"/>
</clipPath>
</defs>
</svg>
