<svg width="56" height="50" viewBox="0 0 56 50" fill="none" xmlns="http://www.w3.org/2000/svg">
<path fill-rule="evenodd" clip-rule="evenodd" d="M18 10C18 4.47715 22.4772 0 28 0C33.5228 0 38 4.47715 38 10C38 15.5228 33.5228 20 28 20C22.4772 20 18 15.5228 18 10Z" fill="#707070"/>
<path fill-rule="evenodd" clip-rule="evenodd" d="M38 18C38 13.5817 41.5817 10 46 10C50.4183 10 54 13.5817 54 18C54 22.4183 50.4183 26 46 26C41.5817 26 38 22.4183 38 18Z" fill="#707070"/>
<path fill-rule="evenodd" clip-rule="evenodd" d="M2 18C2 13.5817 5.58172 10 10 10C14.4183 10 18 13.5817 18 18C18 22.4183 14.4183 26 10 26C5.58172 26 2 22.4183 2 18Z" fill="#707070"/>
<path fill-rule="evenodd" clip-rule="evenodd" d="M12.8263 32.3134C16.0209 27.3184 21.6223 24 28 24C34.3785 24 39.9805 27.3192 43.1749 32.3152C45.3833 35.7691 46.3388 39.9338 45.8906 43.9945C45.8205 44.629 45.4518 45.192 44.898 45.5098C39.9184 48.367 34.1469 50 28 50C21.8531 50 16.0816 48.367 11.102 45.5098C10.5482 45.192 10.1795 44.629 10.1094 43.9945C9.66116 39.9331 10.6171 35.7676 12.8263 32.3134Z" fill="#707070"/>
<path d="M9.55276 30.0098C9.52064 30.0592 9.48873 30.1086 9.457 30.1582C6.88244 34.1837 5.70421 38.9778 6.0659 43.704C4.44445 43.4577 2.87119 43.0616 1.36114 42.5298L1.05459 42.4218C0.495356 42.2249 0.104606 41.717 0.0575759 41.126L0.031795 40.802C0.0107124 40.5371 0 40.2696 0 40C0 34.627 4.23745 30.2438 9.55276 30.0098Z" fill="#707070"/>
<path d="M49.935 43.7039C50.2966 38.9787 49.119 34.1855 46.5454 30.1605C46.5132 30.1101 46.4808 30.0599 46.4482 30.0099C51.7631 30.2443 56 34.6274 56 40C56 40.2696 55.9893 40.5371 55.9682 40.802L55.9424 41.126C55.8954 41.717 55.5046 42.2249 54.9454 42.4218L54.6389 42.5298C53.1291 43.0615 51.5562 43.4576 49.935 43.7039Z" fill="#707070"/>
</svg>
