<svg width="65" height="64" viewBox="0 0 65 64" fill="none" xmlns="http://www.w3.org/2000/svg">
<g clip-path="url(#clip0_1334_94379)">
<path d="M22.6489 27.9764C20.856 28.2475 19.1909 27.1319 18.9298 25.4843L17.48 15.7833C17.2189 14.1358 18.4606 12.5803 20.2534 12.3092C22.0462 12.038 23.7112 13.1537 23.9723 14.8013L25.4221 24.5023C25.6834 26.1498 24.4417 27.7051 22.6489 27.9764Z" fill="#D7F6FF"/>
<path d="M41.5835 28.6271C43.3606 28.795 44.9632 27.6041 45.1631 25.9671L46.2532 16.3328C46.453 14.6958 45.1743 13.2326 43.3973 13.0646C41.6202 12.8967 40.0176 14.0876 39.8177 15.7246L38.7276 25.3589C38.5277 26.9959 39.8065 28.459 41.5835 28.6271Z" fill="#F73B50"/>
<path d="M49.7437 34.5489C51.3729 34.923 52.9401 34.152 53.2443 32.8269L54.9553 25.0175C55.2595 23.6925 54.1854 22.3151 52.5562 21.9411C50.927 21.567 49.3597 22.3379 49.0555 23.663L47.3445 31.4725C47.0404 32.7975 48.1145 34.1749 49.7437 34.5489Z" fill="#AED032"/>
<path d="M32.6025 25.3023C30.7892 25.3294 29.2973 23.8814 29.2701 22.0681L28.9965 10.9694C28.9694 9.15611 30.4173 7.6642 32.2306 7.63709C34.0439 7.60999 35.5358 9.05794 35.5629 10.8712L35.8366 21.97C35.8636 23.7833 34.4157 25.2752 32.6025 25.3023Z" fill="#FFD358"/>
<path d="M36.7444 59.0154L24.2562 58.1451C20.8126 57.9052 18.2374 54.5985 18.0537 50.6183C18.0005 49.4638 18.6738 48.4 19.7248 47.9194C20.9794 47.3458 37.3555 55.8614 38.1041 45.1305C38.2898 42.4695 31.5167 40.4253 29.4255 40.1116C24.2194 39.3307 21.8481 35.5264 26.738 33.708L39.5498 34.7536C43.2824 35.0582 46.0209 38.988 45.6644 43.5282L45.1374 50.2383C44.7324 55.3966 40.9891 59.3113 36.7444 59.0154Z" fill="#222443"/>
<path d="M17.358 40.0543L15.9481 41.5433C14.6992 42.862 12.6179 42.9187 11.299 41.67L7.25785 37.8431C5.93913 36.5942 5.88239 34.5129 7.13114 33.194L8.54109 31.7051C9.78995 30.3864 11.8713 30.3296 13.19 31.5785L17.2312 35.4053C18.55 36.6542 18.6068 38.7356 17.358 40.0543Z" fill="#AED032"/>
<path d="M5.1339 11.8914L6.12627 14.6818C6.1688 14.8013 6.25286 14.896 6.35896 14.9438L8.83818 16.0608C9.18843 16.2186 9.18843 16.7766 8.83818 16.9345L6.35896 18.0515C6.25275 18.0993 6.16869 18.194 6.12627 18.3135L5.1339 21.104C4.99376 21.4982 4.49785 21.4982 4.3577 21.104L3.36533 18.3135C3.32281 18.194 3.23874 18.0993 3.13253 18.0515L0.653316 16.9345C0.303061 16.7767 0.303061 16.2187 0.653316 16.0608L3.13253 14.9438C3.23874 14.896 3.32281 14.8014 3.36533 14.6818L4.3577 11.8914C4.49796 11.4971 4.99376 11.4971 5.1339 11.8914Z" fill="#FFD358"/>
<path d="M53.4481 5.18716L54.1842 7.25707C54.2158 7.34565 54.2781 7.41594 54.3569 7.45142L56.196 8.27996C56.4558 8.39696 56.4558 8.81101 56.196 8.92802L54.3569 9.75655C54.2781 9.79203 54.2158 9.86221 54.1842 9.95091L53.4481 12.0208C53.3441 12.3132 52.9764 12.3132 52.8724 12.0208L52.1363 9.95091C52.1048 9.86232 52.0423 9.79203 51.9636 9.75655L50.1245 8.92802C49.8647 8.81101 49.8647 8.39696 50.1245 8.27996L51.9636 7.45142C52.0424 7.41594 52.1048 7.34576 52.1363 7.25707L52.8724 5.18716C52.9763 4.89464 53.3441 4.89464 53.4481 5.18716Z" fill="#FFD358"/>
<path d="M56.1555 47.5201C56.4291 46.3626 55.7127 45.2026 54.5552 44.929C53.3978 44.6554 52.2377 45.3719 51.9641 46.5293C51.6905 47.6867 52.407 48.8468 53.5645 49.1204C54.7219 49.394 55.882 48.6775 56.1555 47.5201Z" fill="#FFD358"/>
<path d="M11.8198 9.34556C12.3329 9.34556 12.7489 8.92957 12.7489 8.41643C12.7489 7.90329 12.3329 7.4873 11.8198 7.4873C11.3066 7.4873 10.8906 7.90329 10.8906 8.41643C10.8906 8.92957 11.3066 9.34556 11.8198 9.34556Z" fill="#FFD358"/>
</g>
<defs>
<clipPath id="clip0_1334_94379">
<rect width="56" height="56" fill="white" transform="translate(0.390625 4)"/>
</clipPath>
</defs>
</svg>
