<svg width="53" height="52" viewBox="0 0 53 52" fill="none" xmlns="http://www.w3.org/2000/svg">
<g clip-path="url(#clip0_3302_67816)">
<path d="M35.5434 10.1777L38.1891 15.7498C38.4637 16.3491 39.0194 16.7716 39.6702 16.8759L45.5391 17.7626C46.3009 17.9138 46.9178 18.4717 47.1446 19.2145C47.3714 19.9573 47.1713 20.7647 46.6239 21.3156L42.4101 25.5823C41.934 26.0731 41.7203 26.7613 41.8345 27.4355L42.8378 33.4899C42.9994 34.2404 42.7156 35.017 42.1082 35.4865C41.5007 35.9559 40.6776 36.0348 39.9921 35.6891L34.689 32.7924C34.1245 32.4823 33.4407 32.4823 32.8762 32.7924L27.574 35.69C26.8882 36.0364 26.0645 35.9577 25.4566 35.4879C24.8488 35.0181 24.5651 34.2408 24.7274 33.4899L25.7262 27.4355C25.8405 26.7613 25.6267 26.0731 25.1506 25.5823L20.9368 21.3156C20.3894 20.7647 20.1893 19.9573 20.4161 19.2145C20.6429 18.4717 21.2598 17.9138 22.0216 17.7626L27.8905 16.8759C28.5413 16.7716 29.097 16.3491 29.3716 15.7498L32.0173 10.1777C32.324 9.47765 33.016 9.02539 33.7804 9.02539C34.5447 9.02539 35.2367 9.47765 35.5434 10.1777Z" fill="#FFD358"/>
<path d="M42.4172 25.5805C41.9405 26.0722 41.7244 26.7604 41.8345 27.4363L42.8386 33.488C43.0002 34.24 42.7159 35.0179 42.1076 35.4885C41.4992 35.9591 40.6748 36.0389 39.9876 35.6936L34.689 32.7923C34.1237 32.4875 33.4431 32.4875 32.8779 32.7923L27.5793 35.6971C26.8921 36.0425 26.0676 35.9627 25.4593 35.4921C24.851 35.0215 24.5667 34.2436 24.7283 33.4916L24.9524 32.1558C38.2662 24.1047 36.1952 13.1937 34.9848 9.45508C35.2215 9.65312 35.4113 9.90113 35.5407 10.1813L38.1855 15.7578C38.4676 16.353 39.0238 16.7719 39.6738 16.8785L45.5372 17.7661C46.2987 17.9169 46.9154 18.4743 47.1423 19.2166C47.3691 19.9589 47.1692 20.7659 46.6221 21.3165L42.4172 25.5805Z" fill="#FFD358"/>
<path d="M12.9471 0.9169L15.0638 5.37904C15.2851 5.85613 15.7289 6.19211 16.2482 6.27559L20.9425 6.98476C21.5519 7.10569 22.0454 7.55184 22.227 8.14594C22.4086 8.74004 22.2489 9.38587 21.8113 9.82683L18.4438 13.2391C18.063 13.6319 17.8922 14.1827 17.9839 14.722L18.7827 19.5634C18.9113 20.1636 18.6841 20.7843 18.1984 21.1597C17.7127 21.535 17.0547 21.5983 16.5064 21.3224L12.2639 19.0066C11.8128 18.7574 11.2653 18.7574 10.8142 19.0066L6.57257 21.3242C6.02423 21.6001 5.36624 21.5368 4.88053 21.1614C4.39483 20.7861 4.16761 20.1654 4.29623 19.5652L5.09506 14.7238C5.18676 14.1845 5.01594 13.6337 4.63512 13.2409L1.26678 9.82683C0.829179 9.38587 0.669446 8.74004 0.85105 8.14594C1.03265 7.55184 1.52618 7.10569 2.13554 6.98476L6.82988 6.27559C7.34912 6.19211 7.79295 5.85613 8.01423 5.37904L10.131 0.921383C10.3765 0.363459 10.928 0.00292538 11.5376 0.00195509C12.1471 0.000984786 12.6998 0.359761 12.9471 0.9169Z" fill="#F73B50"/>
<path d="M18.445 13.2383C18.0637 13.6317 17.8908 14.1822 17.9788 14.723L18.7857 19.5644C18.9149 20.1657 18.6876 20.7878 18.2011 21.1643C17.7147 21.5407 17.0555 21.6047 16.5058 21.3288L12.2642 19.0067C11.8123 18.7628 11.2681 18.7628 10.8162 19.0067L6.57735 21.3306C6.02764 21.6065 5.36839 21.5425 4.88198 21.166C4.39556 20.7896 4.16826 20.1675 4.29742 19.5662L4.47673 18.4975C15.1278 12.0548 13.4691 3.32781 12.5009 0.336914C12.6915 0.494966 12.8446 0.693405 12.9491 0.91788L15.0614 5.37912C15.2872 5.85522 15.7321 6.19027 16.252 6.27567L20.9419 6.98574C21.5511 7.10624 22.0446 7.55215 22.2261 8.14607C22.4076 8.73999 22.2476 9.38559 21.8098 9.82602L18.445 13.2383Z" fill="#F73B50"/>
<path d="M41.4383 39.4122L48.1445 33.7998C49.2511 32.8705 50.8925 32.9747 51.8727 34.0364C52.8529 35.0981 52.8259 36.7426 51.8114 37.7715L40.6225 49.1667C39.9909 49.8072 39.1368 50.1797 38.2377 50.2067H22.0459C20.9004 50.2084 19.7656 50.4275 18.7018 50.8522L15.8508 51.9998H0.609375V50.2067C0.609375 50.2067 5.09213 46.6205 6.88524 44.8274C14.0577 37.655 19.4101 36.7584 22.9963 36.7584C24.4491 36.7532 25.8577 37.2577 26.977 38.1839C27.2848 38.429 27.6684 38.5589 28.0618 38.5515H37.2963C37.8356 38.628 38.3574 38.7979 38.8383 39.0536C38.9775 39.1515 39.1093 39.2593 39.2328 39.3764C39.5796 39.7297 39.8324 40.1643 39.968 40.6405L41.4383 39.4122Z" fill="#222443"/>
<path d="M41.8437 41.0438C41.9138 42.028 41.5693 42.9967 40.8933 43.7156C40.206 44.4289 39.257 44.8305 38.2664 44.8273H28.4044C27.9092 44.8273 27.5078 44.4259 27.5078 43.9307C27.5078 43.4356 27.9092 43.0342 28.4044 43.0342H38.2664C38.7664 43.0397 39.2466 42.8386 39.5933 42.4783C39.9269 42.1203 40.0958 41.6394 40.0595 41.1514C40.0435 40.9789 40.0135 40.808 39.9699 40.6404C39.9609 40.6404 41.4402 39.4121 41.4402 39.4121C41.6769 39.9255 41.8138 40.4793 41.8437 41.0438Z" fill="white"/>
<path d="M44.7764 2.33087L46.011 4.93087C46.1397 5.21005 46.3987 5.40696 46.7022 5.45625L49.4412 5.87045C49.7953 5.94285 50.0815 6.2032 50.1869 6.54895C50.2924 6.8947 50.2003 7.27044 49.9468 7.52818L47.9825 9.51852C47.7599 9.74747 47.66 10.0689 47.7135 10.3837L48.1788 13.2087C48.2538 13.5589 48.1213 13.921 47.8381 14.14C47.5548 14.359 47.171 14.396 46.851 14.2353L44.3774 12.8824C44.1141 12.7381 43.7953 12.7381 43.532 12.8824L41.0575 14.2353C40.7376 14.396 40.3537 14.359 40.0705 14.14C39.7872 13.921 39.6547 13.5589 39.7297 13.2087L40.1959 10.3837C40.249 10.0689 40.1491 9.7477 39.927 9.51852L37.9626 7.52818C37.7091 7.27032 37.6171 6.89443 37.7228 6.54863C37.8284 6.20284 38.1148 5.94259 38.4692 5.87045L41.2072 5.45625C41.5108 5.40727 41.77 5.21025 41.8985 4.93087L43.133 2.33087C43.2756 2.00416 43.5982 1.79297 43.9547 1.79297C44.3112 1.79297 44.6338 2.00416 44.7764 2.33087Z" fill="#AED032"/>
<path d="M47.9825 9.51581C47.761 9.74537 47.6612 10.0663 47.7135 10.381L48.1824 13.2051C48.258 13.5561 48.1254 13.9192 47.8414 14.1389C47.5575 14.3585 47.1727 14.3957 46.852 14.2344L44.3757 12.8788C44.1122 12.7363 43.7946 12.7363 43.5311 12.8788L41.0584 14.2344C40.7377 14.3957 40.3529 14.3585 40.069 14.1389C39.785 13.9192 39.6524 13.5561 39.728 13.2051L39.8328 12.582C46.0451 8.82546 45.0786 3.73395 44.5137 1.98926C44.6241 2.08187 44.7129 2.19755 44.7737 2.32815L46.0074 4.93084C46.1392 5.2085 46.3989 5.40383 46.7022 5.45353L49.4376 5.86774C49.7915 5.94008 50.0776 6.20016 50.1832 6.54563C50.2889 6.8911 50.1971 7.26667 49.9442 7.52457L47.9825 9.51581Z" fill="#AED032"/>
<path d="M9.54114 33.3091C11.295 32.368 12.3463 30.9148 11.8894 30.0633C11.4325 29.2119 9.64035 29.2845 7.88652 30.2256C6.13269 31.1668 5.08134 32.6199 5.53825 33.4714C5.99516 34.3229 7.78731 34.2502 9.54114 33.3091Z" fill="#D7F6FF"/>
<path d="M52.1621 21.3357C52.4071 20.2992 51.7654 19.2603 50.7289 19.0153C49.6924 18.7703 48.6535 19.4119 48.4085 20.4484C48.1635 21.4849 48.8051 22.5238 49.8416 22.7688C50.8781 23.0138 51.917 22.3722 52.1621 21.3357Z" fill="#FFD358"/>
</g>
<defs>
<clipPath id="clip0_3302_67816">
<rect width="52" height="52" fill="white" transform="translate(0.609375)"/>
</clipPath>
</defs>
</svg>
