<svg width="65" height="64" viewBox="0 0 65 64" fill="none" xmlns="http://www.w3.org/2000/svg">
<g clip-path="url(#clip0_1334_94395)">
<path d="M37.1831 58.4712C35.6151 57.1507 34.04 55.5718 32.5161 53.8217C31.1593 52.2633 29.8433 50.5693 28.6094 48.8015L41.862 35.5488C44.0778 37.0954 46.1776 38.771 48.0397 40.4941C49.3318 41.6897 50.5093 42.9082 51.5319 44.1225C52.9686 45.8285 52.8568 48.3513 51.2796 49.9285L42.989 58.2191C41.4118 59.7961 38.8891 59.9078 37.1831 58.4712Z" fill="#222443"/>
<path d="M48.0396 40.4941C46.1775 38.771 44.0778 37.0954 41.8619 35.5488L28.6094 48.8014C29.8433 50.5692 31.1593 52.2633 32.5161 53.8216C32.8415 54.1953 33.1695 54.5593 33.499 54.9165C35.708 54.425 37.8254 53.5127 39.8262 52.1844C42.2975 50.5439 44.852 48.3231 46.8345 46.0915C48.0288 44.7472 48.9944 43.4233 49.7242 42.1351C49.1884 41.5851 48.6265 41.0372 48.0396 40.4941Z" fill="white"/>
<path d="M46.2577 33.6152C44.862 32.2195 42.5991 32.2195 41.2034 33.6152C42.5991 32.2195 42.5991 29.9566 41.2034 28.5609C39.8076 27.1652 37.5448 27.1652 36.149 28.5609C37.5448 27.1652 37.5448 24.9023 36.149 23.5066C34.7533 22.1108 32.4905 22.1108 31.0947 23.5066C32.4905 22.1108 32.4905 19.848 31.0947 18.4522C29.377 16.7345 27.2917 17.2509 25.0887 18.6836C23.9636 19.4153 22.8077 20.386 21.6543 21.4202C22.6727 26.6542 17.7527 28.2703 15.811 27.0662C13.7843 30.1192 13.0953 33.3415 13.363 36.3948C13.4149 36.9878 13.1742 37.5677 12.7092 37.9393C11.5908 38.833 10.5235 39.7524 9.52695 40.6848C8.31475 41.819 7.207 42.9725 6.2387 44.1223C4.80196 45.8284 4.91374 48.3511 6.49092 49.9283L14.7815 58.2189C16.3642 59.8016 18.892 59.9008 20.603 58.458C21.7842 57.462 22.9691 56.3191 24.133 55.067C25.0281 54.104 25.9109 53.0765 26.7698 52.0015C27.1417 51.5361 27.7216 51.2949 28.315 51.3469C31.3683 51.6146 34.5906 50.9256 37.6435 48.8988C39.5622 47.6251 41.9468 45.6536 43.8846 43.4722C45.245 41.941 46.3851 40.3063 46.9895 38.7373C47.7231 36.8329 47.6673 35.025 46.2577 33.6152Z" fill="#222443"/>
<path d="M22.0491 25.6565L21.3181 24.9629C20.1672 27.3344 17.213 27.9357 15.811 27.0663C13.7843 30.1193 13.0953 33.3416 13.363 36.3949C13.4149 36.9879 13.1742 37.5678 12.7092 37.9394C11.5908 38.8331 10.5236 39.7525 9.52695 40.6849C8.31475 41.8191 7.207 42.9727 6.2387 44.1224C4.80195 45.8285 4.91374 48.3512 6.49092 49.9283L14.7815 58.2189C16.3642 59.8016 18.892 59.9008 20.603 58.458C21.7842 57.462 22.9691 56.3191 24.133 55.067C25.0281 54.104 25.9109 53.0765 26.7698 52.0015C27.1417 51.5362 27.7216 51.2949 28.315 51.3469C28.8248 51.3916 29.3394 51.4089 29.857 51.3985C22.6558 48.4232 18.8438 33.7904 22.0491 25.6565Z" fill="#222443"/>
<path d="M8.28247 32.3665C7.05168 33.5973 7.05168 35.5927 8.28247 36.8235L9.68663 38.2276C10.9174 39.4584 12.9129 39.4584 14.1437 38.2276C15.3745 36.9968 15.3745 35.0014 14.1437 33.7706L12.7395 32.3665C11.5088 31.1357 9.51327 31.1357 8.28247 32.3665Z" fill="white"/>
<path d="M12.0989 27.2678C10.8681 28.4986 10.8681 30.4941 12.0989 31.7249L13.503 33.129C14.7338 34.3598 16.7293 34.3598 17.9601 33.129C19.1909 31.8982 19.1909 29.9028 17.9601 28.672L16.5559 27.2678C15.3251 26.037 13.3297 26.037 12.0989 27.2678Z" fill="white"/>
<path d="M16.5559 22.8108C15.3251 24.0416 15.3251 26.037 16.5559 27.2678L17.9601 28.672C19.1909 29.9028 21.1863 29.9028 22.4171 28.672C23.6479 27.4412 23.6479 25.4457 22.4171 24.2149L21.0129 22.8108C19.7821 21.58 17.7867 21.58 16.5559 22.8108Z" fill="white"/>
<path d="M21.0129 18.3538C19.7821 19.5846 19.7821 21.58 21.0129 22.8108L22.4171 24.2149C23.6479 25.4457 25.6433 25.4457 26.8741 24.2149C28.1049 22.9842 28.1049 20.9887 26.8741 19.7579L25.47 18.3538C24.2392 17.123 22.2437 17.123 21.0129 18.3538Z" fill="white"/>
<path d="M12.4722 6.84287C11.9373 6.4034 11.2554 5.98734 10.6112 5.66304C9.74322 5.22598 8.69267 5.76126 8.53604 6.72037C8.42 7.43098 8.35579 8.22548 8.39648 8.91574C8.40961 9.13865 8.30406 9.35357 8.11594 9.47377C7.53198 9.84685 6.92462 10.3675 6.41636 10.8807C5.73244 11.5711 5.91684 12.7356 6.78069 13.1809C7.42283 13.512 8.16144 13.8196 8.83223 13.9939C9.04661 14.0496 9.21362 14.2167 9.2694 14.431C9.44375 15.1018 9.75131 15.8404 10.0823 16.4825C10.5277 17.3464 11.6921 17.5308 12.3827 16.8469C12.8958 16.3386 13.4165 15.7312 13.7895 15.1473C13.9097 14.9591 14.1247 14.8536 14.3476 14.8667C15.0377 14.9074 15.8323 14.8432 16.543 14.7272C17.5021 14.5705 18.0373 13.5201 17.6003 12.652C17.2759 12.0078 16.8599 11.3259 16.4205 10.791C16.2792 10.619 16.2417 10.382 16.3229 10.1749C16.5755 9.53032 16.7605 8.75321 16.8699 8.0403C17.0173 7.07966 16.1837 6.24601 15.223 6.39345C14.5101 6.50282 13.733 6.68777 13.0885 6.94043C12.8811 7.0217 12.6441 6.98407 12.4722 6.84287Z" fill="#FFD358"/>
<path d="M17.7524 13.2806C11.6993 13.909 9.36062 8.61369 9.8807 5.51367C9.23594 5.55261 8.64979 6.02347 8.53604 6.72041C8.42 7.43102 8.35579 8.22552 8.39648 8.91578C8.40961 9.13869 8.30406 9.35361 8.11594 9.47381C7.53198 9.84689 6.92462 10.3675 6.41636 10.8807C5.73244 11.5712 5.91684 12.7357 6.78069 13.1811C7.42283 13.5122 8.16144 13.8197 8.83223 13.994C9.04661 14.0496 9.21362 14.2168 9.2694 14.431C9.44375 15.1018 9.75131 15.8404 10.0824 16.4826C10.5278 17.3464 11.6922 17.5308 12.3827 16.8469C12.8958 16.3386 13.4165 15.7313 13.7895 15.1473C13.9097 14.9592 14.1247 14.8536 14.3476 14.8668C15.0377 14.9073 15.8323 14.8433 16.543 14.7272C17.2763 14.6073 17.7601 13.9646 17.7524 13.2806Z" fill="#FFD358"/>
<path d="M28.6081 12.1449C27.1871 12.1449 26.0352 10.993 26.0352 9.572V7.09247C26.0352 5.67147 27.1871 4.51953 28.6081 4.51953C30.0291 4.51953 31.181 5.67147 31.181 7.09247V9.572C31.181 10.9929 30.0291 12.1449 28.6081 12.1449Z" fill="#AED032"/>
<path d="M31.06 10.3532C29.0596 9.82702 27.1739 6.99148 27.9448 4.60645C26.8454 4.89902 26.0352 5.90112 26.0352 7.09265V9.57218C26.0352 10.9932 27.1871 12.1451 28.6081 12.1451C29.7568 12.1452 30.7292 11.3923 31.06 10.3532Z" fill="#AED032"/>
<path d="M5.57511 25.6567H3.18231C1.76131 25.6567 0.609375 24.5047 0.609375 23.0837C0.609375 21.6627 1.76131 20.5107 3.18231 20.5107H5.575C6.996 20.5107 8.14794 21.6627 8.14794 23.0837C8.14794 24.5047 6.99611 25.6567 5.57511 25.6567Z" fill="#D7F6FF"/>
<path d="M4.16734 20.5107H3.18231C1.76131 20.5107 0.609375 21.6627 0.609375 23.0837C0.609375 24.5047 1.76131 25.6566 3.18231 25.6566H5.575C5.83575 25.6566 6.08731 25.6175 6.32455 25.5454C4.89108 24.8231 3.49195 22.4642 4.16734 20.5107Z" fill="#D7F6FF"/>
<path d="M44.747 6.84287C45.282 6.4034 45.9638 5.98734 46.6081 5.66304C47.4761 5.22598 48.5266 5.76126 48.6832 6.72037C48.7993 7.43098 48.8635 8.22548 48.8228 8.91574C48.8097 9.13865 48.9152 9.35357 49.1033 9.47377C49.6873 9.84685 50.2947 10.3675 50.8029 10.8807C51.4868 11.5711 51.3024 12.7356 50.4386 13.1809C49.7966 13.512 49.0578 13.8196 48.387 13.9939C48.1727 14.0496 48.0057 14.2167 47.9499 14.431C47.7755 15.1018 47.468 15.8404 47.137 16.4825C46.6916 17.3464 45.5272 17.5308 44.8367 16.8469C44.3235 16.3386 43.8029 15.7312 43.4298 15.1473C43.3096 14.9591 43.0947 14.8536 42.8718 14.8667C42.1815 14.9074 41.387 14.8432 40.6764 14.7272C39.7172 14.5705 39.182 13.5201 39.6191 12.652C39.9435 12.0078 40.3595 11.3259 40.7989 10.791C40.9401 10.619 40.9777 10.382 40.8965 10.1749C40.6438 9.53032 40.4589 8.75321 40.3495 8.0403C40.2021 7.07966 41.0357 6.24601 41.9964 6.39345C42.7093 6.50282 43.4864 6.68777 44.1309 6.94043C44.3381 7.0217 44.5751 6.98407 44.747 6.84287Z" fill="#FFD358"/>
<path d="M47.137 16.4821C47.4681 15.8399 47.7756 15.1013 47.9499 14.4305C48.0055 14.2162 48.1727 14.0491 48.387 13.9934C48.9549 13.8459 49.5709 13.6024 50.1363 13.3304C45.4249 13.3384 43.2613 9.53849 43.1507 6.62912C42.7672 6.53024 42.373 6.45083 41.9964 6.39298C41.0357 6.24554 40.2021 7.07919 40.3495 8.03983C40.4589 8.75274 40.6438 9.52985 40.8965 10.1744C40.9776 10.3816 40.9401 10.6186 40.7989 10.7904C40.3595 11.3254 39.9434 12.0072 39.6191 12.6514C39.182 13.5194 39.7173 14.57 40.6764 14.7266C41.387 14.8426 42.1815 14.9068 42.8718 14.8661C43.0947 14.853 43.3096 14.9586 43.4298 15.1467C43.8029 15.7306 44.3235 16.338 44.8367 16.8463C45.5272 17.5303 46.6916 17.3459 47.137 16.4821Z" fill="#FFD358"/>
<path d="M54.0359 25.6576H51.6433C50.2223 25.6576 49.0703 24.5057 49.0703 23.0847C49.0703 21.6637 50.2223 20.5117 51.6433 20.5117H54.0359C55.4569 20.5117 56.6089 21.6637 56.6089 23.0847C56.6089 24.5057 55.4569 25.6576 54.0359 25.6576Z" fill="#F73B50"/>
<path d="M52.6283 20.5107H51.6432C50.2222 20.5107 49.0703 21.6627 49.0703 23.0837C49.0703 24.5047 50.2222 25.6566 51.6432 25.6566H54.0359C54.2967 25.6566 54.5482 25.6175 54.7855 25.5454C53.352 24.8231 51.9529 22.4642 52.6283 20.5107Z" fill="#F73B50"/>
</g>
<defs>
<clipPath id="clip0_1334_94395">
<rect width="56" height="56" fill="white" transform="translate(0.609375 4)"/>
</clipPath>
</defs>
</svg>
