<svg width="58" height="52" viewBox="0 0 58 52" fill="none" xmlns="http://www.w3.org/2000/svg">
<g opacity="0.4">
<path fill-rule="evenodd" clip-rule="evenodd" d="M50.6133 1.96849C52.5984 3.50283 54.4457 5.83955 55.7813 8.59657C57.1139 11.3473 57.7721 14.1772 57.6513 16.5809C57.5377 18.8389 56.6587 21.2909 54.3199 22.2764L42.8519 29.1572C42.4838 29.3781 42.2997 29.4885 42.0791 29.5345C41.8585 29.5805 41.6684 29.5558 41.2882 29.5063C32.3676 28.3463 28.6304 19.36 28.2749 11.1528C28.2446 10.4532 28.2295 10.1033 28.4032 9.78037C28.5769 9.45739 28.8954 9.26634 29.5322 8.88423L43.6969 0.385406L43.8675 0.321439C46.2281 -0.563633 48.7236 0.507939 50.6133 1.96849ZM48.1671 5.13319C46.6504 3.96094 45.6631 3.91997 45.2718 4.06667C45.0013 4.16807 44.4249 4.62624 44.3411 6.29321C44.2616 7.87459 44.7024 10.0342 45.8159 12.3328C46.9264 14.6251 48.4091 16.4414 49.8303 17.5399C51.347 18.7122 52.3343 18.7531 52.7256 18.6064C52.996 18.505 53.5725 18.0468 53.6563 16.3799C53.7358 14.7985 53.295 12.6389 52.1815 10.3403C51.071 8.04802 49.5883 6.23166 48.1671 5.13319Z" fill="#141B34"/>
<path d="M23.4123 12.5561C23.7715 12.3407 23.951 12.2329 24.0851 12.3062C24.2192 12.3796 24.2255 12.5924 24.2381 13.018C24.4776 21.0904 28.6267 28.7738 36.2025 32.1142C36.6487 32.3109 36.8718 32.4093 36.8819 32.5712C36.8921 32.7331 36.6878 32.8556 36.2793 33.1007L33.2503 34.9181C32.716 35.2387 32.4488 35.399 32.1334 35.4226C31.8181 35.4462 31.5527 35.3367 31.0219 35.1178C23.3142 31.9391 19.8682 24.9168 18.8547 17.0517C18.7548 16.2759 18.7048 15.888 18.878 15.5304C19.0513 15.1728 19.4025 14.9621 20.1049 14.5406L23.4123 12.5561Z" fill="#141B34"/>
<path d="M14.1596 18.1078C14.4824 17.9141 14.6438 17.8173 14.7738 17.8805C14.9037 17.9437 14.9274 18.1327 14.9748 18.5106C15.9627 26.3853 19.7079 34.0217 26.9244 37.7173C27.3298 37.925 27.5325 38.0288 27.5378 38.1856C27.543 38.3425 27.3521 38.457 26.9703 38.6861L14.3005 46.288L14.1299 46.352C11.7693 47.2371 9.27385 46.1655 7.38416 44.7049C5.39901 43.1706 3.55173 40.8339 2.21612 38.0768C0.883569 35.3262 0.22528 32.4962 0.346142 30.0925C0.459676 27.8345 1.33875 25.3825 3.67756 24.397L14.1596 18.1078Z" fill="#141B34"/>
</g>
<path d="M23.4143 12.5541C23.7734 12.3386 23.953 12.2309 24.087 12.3042C24.2211 12.3775 24.2274 12.5903 24.2401 13.016C24.4795 21.0883 28.6286 28.7718 36.2044 32.1121C36.6506 32.3088 36.8737 32.4072 36.8839 32.5691C36.894 32.731 36.6898 32.8535 36.2813 33.0986L33.2522 34.916C32.7179 35.2366 32.4508 35.3969 32.1354 35.4205C31.82 35.4441 31.5546 35.3346 31.0238 35.1158C23.3161 31.937 19.8701 24.9147 18.8567 17.0496C18.7567 16.2738 18.7067 15.8859 18.88 15.5283C19.0532 15.1707 19.4044 14.96 20.1068 14.5385L23.4143 12.5541Z" fill="#F73B50"/>
<path d="M37.4184 51.1808C37.0386 51.7057 36.4281 52.0141 35.7802 52.0083C35.1324 52.0026 34.5274 51.6833 34.1571 51.1517L32.4976 48.7698L27.1952 51.3067C26.3253 51.7229 25.2822 51.459 24.7148 50.6791C24.1495 49.9022 24.2168 48.8337 24.8736 48.1339L24.8767 48.1307L24.8811 48.126C25.0518 47.934 26.3203 46.4366 27.0247 44.0855C27.1694 43.6026 27.2418 43.3611 27.3642 43.2036C27.4866 43.0462 27.6749 42.9332 28.0515 42.7073L40.0135 35.53C40.6192 35.1666 40.922 34.9849 41.1837 35.1155C41.4454 35.246 41.481 35.584 41.5521 36.2599C41.9935 40.4536 41.2471 45.8891 37.4184 51.1808Z" fill="#AED032"/>
</svg>
