<svg width="25" height="24" viewBox="0 0 25 24" fill="none" xmlns="http://www.w3.org/2000/svg">
<path fill-rule="evenodd" clip-rule="evenodd" d="M15.7976 4.048C14.9448 4.008 14.6736 4 12.5 4C10.3264 4 10.0552 4.0104 9.2024 4.048C8.3496 4.088 7.7704 4.2216 7.26 4.42C6.72594 4.62058 6.24214 4.93539 5.8424 5.3424C5.43504 5.74186 5.12019 6.22574 4.92 6.76C4.7216 7.2704 4.588 7.8496 4.548 8.7024C4.508 9.5552 4.5 9.8264 4.5 12C4.5 14.1736 4.5104 14.4448 4.548 15.2976C4.588 16.1496 4.7216 16.7304 4.92 17.24C5.12075 17.774 5.43553 18.2577 5.8424 18.6576C6.24202 19.0648 6.72586 19.3796 7.26 19.58C7.7704 19.7776 8.3504 19.912 9.2024 19.952C10.0552 19.992 10.3264 20 12.5 20C14.6736 20 14.9448 19.9896 15.7976 19.952C16.6496 19.912 17.2304 19.7776 17.74 19.58C18.2738 19.379 18.7576 19.0643 19.1576 18.6576C19.5649 18.2581 19.8797 17.7742 20.08 17.24C20.2776 16.7296 20.412 16.1496 20.452 15.2976C20.492 14.4448 20.5 14.1736 20.5 12C20.5 9.8264 20.4896 9.5552 20.452 8.7024C20.412 7.8504 20.2776 7.2696 20.08 6.76C19.8792 6.22607 19.5644 5.74232 19.1576 5.3424C18.7128 4.8984 18.268 4.6232 17.74 4.42C17.2296 4.2216 16.6496 4.088 15.7976 4.048ZM8.5 12C8.5 9.79086 10.2909 8 12.5 8C14.7091 8 16.5 9.79086 16.5 12C16.5 14.2091 14.7091 16 12.5 16C10.2909 16 8.5 14.2091 8.5 12ZM17.5 8C17.5 7.44772 17.0523 7 16.5 7C15.9477 7 15.5 7.44772 15.5 8C15.5 8.55228 15.9477 9 16.5 9C17.0523 9 17.5 8.55228 17.5 8ZM14.5 11.5C14.5 10.1193 13.3807 9 12 9C10.6193 9 9.5 10.1193 9.5 11.5C9.5 12.8807 10.6193 14 12 14C13.3807 14 14.5 12.8807 14.5 11.5Z" fill="white"/>
</svg>
