<svg width="140" height="259" viewBox="0 0 140 259" fill="none" xmlns="http://www.w3.org/2000/svg">
<g clip-path="url(#clip0_3946_46180)">
<path d="M52.9002 222.835C48.1708 220.308 42.8262 218.09 39.9506 213.394C37.4031 209.17 37.3981 203.828 37.283 198.83C37.0119 188.776 35.7393 178.6 31.8422 169.424C16.136 141.463 28.581 137.439 44.5074 116.074L40.784 115.431L40.6244 115.767C10.8757 140.245 19.4958 151.687 31.1532 182.995C33.7555 193.762 32.0908 205.868 37.6176 215.377C46.8448 231.332 73.6225 233.149 75.0519 254.345C89.8862 249.799 59.1556 225.106 52.9002 222.835Z" fill="#222443"/>
<path d="M32.8149 121.369L52.3933 32.1349C52.6931 30.6829 53.8606 29.5361 55.4039 29.1799L121.571 14.0933C124.176 13.5055 126.714 15.3951 126.788 17.9487L128.599 81.6775C128.646 83.1894 127.742 84.5891 126.346 85.2817L38.8396 125.882C35.682 127.308 32.1052 124.617 32.8149 121.369Z" fill="#E95444"/>
<path d="M34.1592 125.178C63.3752 87.6964 93.1848 50.6285 123.571 14.0747C122.934 13.9131 122.271 13.9025 121.583 14.043L55.416 29.1297C53.8728 29.4858 52.7052 30.6326 52.4054 32.0847L32.827 121.318C32.5013 122.922 33.0885 124.267 34.1592 125.178Z" fill="#E95444"/>
<path d="M117.649 80.5666C109.118 74.2731 106.488 65.16 101.095 56.6595C89.4314 40.9069 61.1249 50.7 53.0519 30.6925C52.7261 31.1029 52.5405 31.5895 52.4046 32.0846L32.8262 121.318C32.1165 124.566 35.6934 127.257 38.8099 125.772L125.543 85.5058C122.752 84.1948 120.121 82.5484 117.649 80.5666Z" fill="#E95444"/>
<path d="M34.3794 125.372C53.597 100.011 73.3261 74.9456 93.5323 50.3775C80.3736 43.649 59.5496 47.0581 53.0009 30.6839C52.6751 31.0944 52.4895 31.5809 52.3536 32.076L32.7752 121.31C32.4819 123.022 33.2008 124.494 34.3794 125.372Z" fill="#E95444"/>
<path d="M36.0194 154.589C35.2244 149.681 31.076 150.625 28.3071 153.362L27.5971 154.225C25.1692 156.762 22.1754 156.038 19.544 154.392C12.8677 151.892 15.0448 163.053 16.0813 166.551C16.3945 168.005 17.3141 169.2 18.8271 168.424C21.3242 166.677 23.4801 163.938 26.6141 163.545C29.2192 162.957 32.4873 164.765 34.9068 163.471C36.7261 161.503 36.4665 157.051 36.0194 154.589Z" fill="#FFD358"/>
<path d="M45.6873 193.02C44.8924 188.113 40.744 189.057 37.9751 191.794L37.2651 192.657C34.8372 195.194 31.8434 194.47 29.212 192.824C22.527 190.374 24.7042 201.535 25.7493 204.982C26.0625 206.436 26.9821 207.632 28.4951 206.856C30.9922 205.109 33.1481 202.369 36.2821 201.976C38.8872 201.389 42.1553 203.197 44.5747 201.903C46.3358 199.977 46.0848 195.474 45.6873 193.02Z" fill="#FFD358"/>
<path d="M58.2497 216.654C54.5778 213.324 51.9601 216.969 51.4534 220.823L51.4211 221.906C50.2823 228.554 44.8837 225.757 43.015 228.909C41.7032 232.986 47.186 236.784 49.988 238.926C50.6226 239.399 51.3652 239.838 52.112 239.655C54.4602 239.075 53.2766 232.856 56.38 229.658C58.0763 227.513 61.6851 226.736 62.7877 224.177C63.0205 221.625 60.0695 218.264 58.2497 216.654Z" fill="#FFD358"/>
<rect width="5.90448" height="143.488" rx="2.95224" transform="matrix(0.764491 0.64537 -0.637728 0.769652 122.816 12.9305)" fill="white"/>
<rect width="5.93769" height="93.7095" rx="2.96885" transform="matrix(-0.571018 0.820429 -0.816303 -0.578355 129.645 82.0424)" fill="white"/>
</g>
<defs>
<clipPath id="clip0_3946_46180">
<rect width="99.2441" height="245.02" fill="white" transform="matrix(0.985454 0.16994 -0.168833 0.985645 41.9531 0)"/>
</clipPath>
</defs>
</svg>
