<svg width="188" height="173" viewBox="0 0 188 173" fill="none" xmlns="http://www.w3.org/2000/svg">
<g style="mix-blend-mode:multiply">
<path d="M91.8862 123.19C96.4465 123.19 100.143 119.525 100.143 115.004C100.143 110.483 96.4465 106.818 91.8862 106.818C87.3258 106.818 83.6289 110.483 83.6289 115.004C83.6289 119.525 87.3258 123.19 91.8862 123.19Z" fill="#F15E5A"/>
</g>
<g style="mix-blend-mode:multiply">
<path d="M154.996 69.9987C150.969 61.2159 146.14 52.2565 138.018 46.9424C129.61 41.4394 117.04 40.6172 106.964 40.9948C86.9014 41.747 67.9878 46.851 53.1782 60.2901C39.5328 72.6725 32.535 90.8502 29.6812 108.967C27.9548 119.906 27.6476 131.472 31.9913 141.671C34.9925 148.712 40.3039 154.675 46.761 158.801C52.487 162.455 59.9271 165.501 66.7099 165.967C67.783 166.04 68.8459 166.106 69.8985 166.165C63.4782 162.535 59.4725 153.575 57.1839 146.489V146.461C55.8785 142.083 54.9243 137.61 54.3301 133.083C51.9064 114.972 54.5759 95.6496 58.9963 78.5531C59.6722 75.9402 61.1467 72.7334 64.2186 73.51C65.0343 73.7289 65.7707 74.1727 66.3422 74.7899C66.9137 75.4071 67.2969 76.1724 67.4471 76.9969C68.0123 79.9143 68.4086 83.4317 68.8141 87.01C68.851 87.3145 68.8817 87.6404 68.9124 87.9632C68.9339 88.1794 68.9554 88.3956 68.9738 88.6149C69.0015 88.9194 69.0261 89.2422 69.0476 89.559C69.066 89.7934 69.0844 90.031 69.0998 90.2716C69.0998 90.302 69.0998 90.3325 69.0998 90.3629C69.1551 91.4197 69.2196 92.4703 69.2903 93.5088V93.6489C69.3333 94.3797 69.3732 95.1076 69.4193 95.8232C69.4408 96.1795 69.4654 96.5358 69.4899 96.8861C69.5084 97.1175 69.5237 97.3459 69.5422 97.5713C69.5729 97.9946 69.6097 98.4087 69.6497 98.8168L69.6681 99.0056C69.6957 99.2797 69.7234 99.5477 69.7541 99.8126C69.7848 100.078 69.8186 100.336 69.8524 100.592C69.877 100.781 69.9016 100.97 69.9323 101.153L69.9968 101.57C69.9968 101.612 70.0121 101.652 70.0183 101.695C70.0429 101.826 70.0644 101.954 70.0889 102.081C70.0889 102.136 70.1074 102.188 70.1197 102.24L70.1381 102.337C70.1965 102.642 70.261 102.913 70.3286 103.184C70.3286 103.184 70.3286 103.199 70.3286 103.205C71.2501 108.86 72.7308 114.275 75.3388 119.531C76.8901 122.665 78.7701 125.692 79.5995 129.084C80.1847 131.558 80.1968 134.131 79.6349 136.61C79.0731 139.089 77.9519 141.41 76.3556 143.398C74.8657 145.225 72.952 146.784 72.0212 148.943C70.903 151.544 72.0212 155.5 75.5661 154.958C76.2252 154.847 76.8533 154.6 77.4097 154.233C77.966 153.866 78.4379 153.386 78.7947 152.826L85.0921 143.3C85.6727 148.499 82.8588 152.451 81.7406 157.026C81.4949 158.031 81.2737 159.197 82.183 159.946C82.3944 160.109 82.6362 160.229 82.8945 160.299C83.1528 160.369 83.4226 160.388 83.6882 160.354C84.917 160.217 85.771 159.364 86.5297 158.496C90.6791 153.716 92.9854 147.633 93.0391 141.327C93.0391 138.629 92.8179 135.489 94.8638 133.713C96.8421 131.993 99.8403 132.517 102.451 132.839C107.679 133.464 112.982 132.851 117.924 131.049L117.851 131.155C115.891 133.972 119.175 137.456 122.151 135.723C126.682 133.062 131.201 130.409 133.385 129.733C136.764 128.686 140.266 127.626 143.784 128.019C147.301 128.411 150.867 130.665 151.614 134.109C142.352 139.783 136 148.949 128.529 156.87C130.636 155.932 132.71 154.923 134.749 153.843C136.946 152.699 139.081 151.441 141.145 150.076C155.792 140.27 164.961 122.896 164.74 105.37C164.587 93.0611 160.138 81.2086 154.996 69.9987ZM140.509 93.2773C140.398 95.2324 139.587 97.0688 138.761 98.8473C137.557 101.388 136.214 103.861 134.737 106.257C134.59 106.5 134.43 106.744 134.292 106.987C134.175 107.179 134.058 107.371 133.938 107.563L133.825 107.749C133.674 107.989 133.517 108.233 133.37 108.474C132.61 109.68 131.817 110.91 130.989 112.165L130.375 113.078L129.942 113.742L129.588 114.269L128.873 115.329C128.851 115.365 128.827 115.402 128.802 115.435L128.148 116.395C127.908 116.751 127.662 117.107 127.417 117.463L126.679 118.535L126.065 119.409L125.927 119.607L124.434 121.739L123.844 122.583C118.21 125.835 111.934 127.994 105.446 128.39C97.0264 128.902 88.2715 126.24 82.2199 120.417C78.0759 116.431 75.5846 110.819 75.1822 105.099C75.2067 104.777 75.2344 104.457 75.2589 104.134C75.3142 103.49 75.3726 102.849 75.434 102.209C75.4678 101.887 75.4986 101.567 75.5323 101.247C75.5661 100.927 75.5999 100.604 75.6368 100.285C75.6737 99.9649 75.7074 99.6421 75.7474 99.3223C75.8303 98.6128 75.9194 97.9002 76.0116 97.1906L76.1129 96.4445C76.1969 95.8517 76.2829 95.2578 76.371 94.663L76.5461 93.5088C76.7959 91.9374 77.0703 90.371 77.3693 88.8098L77.5537 87.8597L77.7288 86.9795C77.9335 86.0071 78.1383 85.0376 78.3431 84.0712C78.4138 83.7667 78.4844 83.4439 78.5582 83.1272C78.6319 82.8105 78.7025 82.4998 78.7793 82.1862C79.3773 79.6768 80.0419 77.1827 80.773 74.7038C81.7028 71.5427 82.738 68.4141 83.8787 65.318C85.0921 62.096 87.0796 58.3777 90.5508 58.1675C93.2449 58.0092 95.598 60.2688 96.4427 62.8117C96.595 63.2715 96.7131 63.7417 96.796 64.2186C97.1738 66.3504 96.9158 68.5948 96.6547 70.7692L93.3155 98.3752C93.2436 98.9089 93.352 99.4511 93.6237 99.9172C93.8955 100.383 94.3154 100.747 94.8177 100.952C96.5441 101.609 97.6684 99.8218 98.2982 98.3387L111.114 68.0649C112.601 64.5597 115.108 60.412 118.92 60.8292C121.546 61.1124 123.426 63.6948 123.789 66.2864C124.151 68.878 123.349 71.4635 122.56 73.9729L109.667 111.099C108.813 113.562 112.152 115.259 113.661 113.133L128.366 92.5373C129.595 91.0146 130.879 89.492 132.571 88.4961C134.264 87.5003 136.491 87.1866 138.171 88.1916C139.852 89.1966 140.62 91.3253 140.509 93.2773Z" fill="#F15E5A"/>
</g>
<g style="mix-blend-mode:multiply">
<path d="M28.6668 141.756C41.9814 141.756 52.7751 125.582 52.7751 105.632C52.7751 85.681 41.9814 69.5078 28.6668 69.5078C15.3522 69.5078 4.55859 85.681 4.55859 105.632C4.55859 125.582 15.3522 141.756 28.6668 141.756Z" fill="#FEC768"/>
</g>
<g style="mix-blend-mode:multiply">
<path d="M46.1388 45.7165C50.9638 45.7165 54.8753 41.8388 54.8753 37.0555C54.8753 32.2722 50.9638 28.3945 46.1388 28.3945C41.3138 28.3945 37.4023 32.2722 37.4023 37.0555C37.4023 41.8388 41.3138 45.7165 46.1388 45.7165Z" fill="#F15E5A"/>
</g>
<g style="mix-blend-mode:multiply">
<path d="M73.5646 17.432C76.6184 17.432 79.094 14.9778 79.094 11.9504C79.094 8.92296 76.6184 6.46875 73.5646 6.46875C70.5108 6.46875 68.0352 8.92296 68.0352 11.9504C68.0352 14.9778 70.5108 17.432 73.5646 17.432Z" fill="#FDC866"/>
</g>
<g style="mix-blend-mode:multiply">
<path d="M127.755 33.0153C135.846 33.0153 142.405 26.513 142.405 18.492C142.405 10.471 135.846 3.96875 127.755 3.96875C119.664 3.96875 113.105 10.471 113.105 18.492C113.105 26.513 119.664 33.0153 127.755 33.0153Z" fill="#5479E5"/>
</g>
<path d="M72.4607 68.0642C75.1379 68.0642 77.3082 65.9127 77.3082 63.2587C77.3082 60.6046 75.1379 58.4531 72.4607 58.4531C69.7836 58.4531 67.6133 60.6046 67.6133 63.2587C67.6133 65.9127 69.7836 68.0642 72.4607 68.0642Z" fill="#F8FBF8"/>
<g style="mix-blend-mode:multiply">
<path d="M91.8862 123.19C96.4465 123.19 100.143 119.525 100.143 115.004C100.143 110.483 96.4465 106.818 91.8862 106.818C87.3258 106.818 83.6289 110.483 83.6289 115.004C83.6289 119.525 87.3258 123.19 91.8862 123.19Z" fill="#4A4099"/>
</g>
<path d="M71.3555 100.863V101.083" stroke="#4A4099" stroke-miterlimit="10"/>
<path d="M75.3345 99.1079L75.1133 98.8887" stroke="#4A4099" stroke-miterlimit="10"/>
<g style="mix-blend-mode:multiply">
<path d="M182.695 90.6874C182.24 107.062 174.533 122.794 163.108 134.629C153.46 144.62 141.32 151.987 128.319 157.091C135.882 149.118 142.266 139.839 151.61 134.074C150.864 130.642 147.31 128.389 143.78 127.984C140.251 127.579 136.761 128.651 133.382 129.698C131.198 130.374 126.679 133.027 122.148 135.688C119.177 137.433 115.893 133.95 117.847 131.12L117.921 131.014C112.979 132.816 107.676 133.429 102.448 132.805C99.8367 132.482 96.8385 131.958 94.8602 133.679C92.8143 135.463 93.0478 138.603 93.0355 141.292C92.9818 147.598 90.6755 153.681 86.5261 158.462C85.7674 159.329 84.9011 160.182 83.6846 160.319C83.419 160.353 83.1492 160.334 82.8909 160.264C82.6326 160.194 82.3908 160.074 82.1794 159.911C81.2578 159.162 81.4913 157.996 81.7371 156.991C82.8552 152.423 85.6691 148.464 85.0885 143.265L78.8249 152.852C78.4681 153.412 77.9962 153.892 77.4399 154.259C76.8836 154.626 76.2554 154.873 75.5963 154.984C72.0422 155.526 70.9332 151.57 72.0514 148.969C72.9729 146.81 74.896 145.251 76.3858 143.424C77.9821 141.436 79.1033 139.115 79.6651 136.636C80.227 134.157 80.2149 131.584 79.6297 129.111C78.8003 125.718 76.9203 122.691 75.369 119.557C72.761 114.292 71.268 108.877 70.3465 103.237C70.3465 103.237 70.3465 103.222 70.3465 103.216C70.2789 102.945 70.2144 102.662 70.156 102.369L70.1376 102.272C70.1376 102.22 70.1161 102.168 70.1069 102.114C70.0823 101.986 70.0608 101.858 70.0362 101.727C70.0362 101.684 70.0362 101.645 70.0147 101.602L69.9502 101.185C69.9226 100.999 69.8949 100.813 69.8703 100.624C69.8365 100.369 69.8027 100.11 69.772 99.8447C69.7413 99.5798 69.7137 99.3118 69.686 99.0377L69.6676 98.8489C69.6276 98.4408 69.5939 98.0267 69.5601 97.6034C69.5416 97.378 69.5263 97.1496 69.5078 96.9182C69.4833 96.5679 69.4587 96.2116 69.4372 95.8553C69.3911 95.1397 69.3512 94.4118 69.3082 93.6809V93.5409C69.2375 92.5024 69.173 91.4518 69.1177 90.395C69.1177 90.3646 69.1177 90.3341 69.1177 90.3037C69.1024 90.0631 69.0839 89.8255 69.0655 89.591C69.044 89.2865 69.0194 88.9607 68.9918 88.647C68.9733 88.4277 68.9518 88.2115 68.9303 87.9953C68.8996 87.6725 68.8689 87.3558 68.832 87.0421C72.3419 82.5431 76.3342 78.4352 80.7387 74.7907L80.8001 74.7389C80.069 77.2137 79.4045 79.7079 78.8065 82.2213C78.7307 82.534 78.657 82.8476 78.5853 83.1623C78.5116 83.4669 78.4409 83.7927 78.3703 84.1064C78.1511 85.0748 77.9463 86.0442 77.7559 87.0147L77.5808 87.8948L77.3965 88.8449C77.249 89.6276 77.1046 90.4072 76.9664 91.1899C76.8282 91.9725 76.6961 92.7582 76.5732 93.5439L76.3981 94.6981C76.308 95.2909 76.222 95.8848 76.1401 96.4796L76.0387 97.2257C75.9465 97.9353 75.8575 98.6479 75.7745 99.3575C75.7346 99.6772 75.6977 100 75.6639 100.32C75.6301 100.64 75.5933 100.959 75.5595 101.282C75.5257 101.605 75.495 101.922 75.4612 102.244C75.3997 102.884 75.3414 103.526 75.2861 104.169C75.2584 104.495 75.2369 104.824 75.2093 105.15C75.2461 105.683 75.3045 106.213 75.3782 106.739C75.4745 107.428 75.6004 108.112 75.7561 108.792L75.7745 108.88C75.8482 109.185 75.9281 109.511 76.0141 109.824C76.0725 110.038 76.1339 110.248 76.1984 110.458C76.2967 110.79 76.4043 111.116 76.521 111.441C76.7606 112.124 77.0299 112.793 77.3289 113.448C77.5531 113.939 77.7897 114.42 78.0446 114.892C78.1307 115.053 78.2197 115.196 78.3088 115.367C78.487 115.671 78.6713 115.976 78.8587 116.28C79.0522 116.585 79.2488 116.89 79.4516 117.173C79.8632 117.757 80.2994 118.327 80.7633 118.872C80.88 119.009 80.9998 119.143 81.1196 119.277C81.3592 119.545 81.605 119.807 81.8569 120.063C81.9828 120.191 82.1118 120.316 82.2409 120.44C88.2925 126.263 97.0474 128.925 105.467 128.413C111.955 128.017 118.231 125.858 123.865 122.606L124.455 121.762C124.955 121.049 125.452 120.339 125.948 119.63L126.086 119.432C126.289 119.128 126.492 118.851 126.7 118.558C126.949 118.199 127.195 117.843 127.438 117.486C127.68 117.13 127.929 116.774 128.169 116.418C128.408 116.061 128.608 115.778 128.823 115.458C128.848 115.425 128.872 115.388 128.894 115.352C129.136 114.998 129.376 114.645 129.609 114.292C129.729 114.115 129.849 113.939 129.963 113.765L130.408 113.101C130.611 112.797 130.814 112.492 131.023 112.188C131.842 110.935 132.635 109.705 133.403 108.497C133.557 108.256 133.71 108.012 133.858 107.772L133.972 107.586C134.091 107.394 134.208 107.202 134.325 107.01C134.475 106.767 134.632 106.523 134.77 106.28C136.247 103.884 137.59 101.411 138.794 98.8702C139.615 97.0917 140.432 95.2554 140.542 93.3003C140.653 91.3452 139.906 89.2256 138.217 88.2146C136.527 87.2035 134.309 87.5324 132.617 88.5191C130.924 89.5058 129.649 91.0498 128.411 92.5603L113.66 113.132C112.143 115.263 108.804 113.561 109.667 111.097L122.569 73.9776C123.358 71.4834 124.16 68.8827 123.797 66.2911C123.435 63.6995 121.555 61.114 118.928 60.8338C115.116 60.4166 112.61 64.5644 111.123 68.0696L98.3007 98.3434C97.671 99.8265 96.5467 101.614 94.8203 100.956C94.3179 100.752 93.8981 100.388 93.6263 99.9219C93.3545 99.4558 93.2462 98.9135 93.3181 98.3799L96.6573 70.7739C96.9184 68.5995 97.1764 66.3581 96.7986 64.2233C107.209 58.8513 118.634 55.34 130.248 53.4793C137.928 52.2612 145.826 51.713 153.487 53.0834C161.149 54.4538 168.607 57.8525 173.854 63.5533C180.468 70.7525 182.965 80.9453 182.695 90.6874Z" fill="#416FF4" fill-opacity="0.86"/>
</g>
<path d="M150.056 111.498C154.637 111.498 158.35 107.816 158.35 103.275C158.35 98.734 154.637 95.0527 150.056 95.0527C145.475 95.0527 141.762 98.734 141.762 103.275C141.762 107.816 145.475 111.498 150.056 111.498Z" fill="#FFFEF9"/>
</svg>
