<svg width="620" height="394" viewBox="0 0 620 394" fill="none" xmlns="http://www.w3.org/2000/svg">
<rect width="620" height="393.5" fill="#FFF6F1"/>
<g clip-path="url(#clip0_3745_18595)">
<path d="M201 196.75V67.1685C201 52.164 217.917 40 238.785 40H381.215C402.083 40 419 52.164 419 67.1685V196.75L310 223.918L201 196.75Z" fill="#AED032"/>
<path d="M272.215 196.75H129.785C108.917 196.75 92 208.914 92 223.919V326.331C92 341.336 108.917 353.5 129.785 353.5H272.215C293.083 353.5 310 341.336 310 326.331L332.241 275.125L310 223.919C310 208.914 293.084 196.75 272.215 196.75Z" fill="#F73B50"/>
<path d="M134.715 227.465H267.281V322.784H134.715V227.465Z" fill="#FFF6F1"/>
<path d="M216.946 271.879C219.421 269.418 220.886 266.399 220.886 263.138C220.886 254.894 211.558 248.187 200.093 248.187H182.15C178.516 248.187 175.57 250.305 175.57 252.918V273.37V273.403V297.334C175.57 298.592 176.268 299.799 177.507 300.687C178.741 301.569 180.41 302.065 182.15 302.065H182.179C182.179 302.065 198.679 302.012 203.226 302.012C216.022 302.012 226.433 294.526 226.433 285.326C226.433 279.813 222.694 274.918 216.946 271.879ZM200.092 257.648C204.302 257.648 207.726 260.111 207.726 263.137C207.726 266.164 204.302 268.626 200.092 268.626C198.775 268.626 196.297 268.631 193.592 268.639H188.728V257.648H200.092ZM203.226 292.549C200.576 292.549 193.875 292.567 188.729 292.582V278.113C190.3 278.109 191.987 278.104 193.596 278.1H203.227C208.767 278.1 213.275 281.341 213.275 285.324C213.275 289.308 208.767 292.549 203.226 292.549Z" fill="#F73B50"/>
<path d="M243.715 70.7148H376.281V166.035H243.715V70.7148Z" fill="#FFF6F1"/>
<path d="M317.558 95.1205C317.536 95.0769 317.511 95.0334 317.487 94.9905C316.251 92.8307 313.356 91.436 310.108 91.436C310.104 91.436 310.102 91.436 310.098 91.436C306.847 91.4386 303.951 92.8383 302.721 95.0019C302.702 95.0372 302.682 95.0725 302.663 95.1085L279.468 138.899C278.175 141.341 279.878 144.074 283.274 145.004C284.044 145.214 284.837 145.315 285.615 145.315C288.266 145.315 290.765 144.154 291.764 142.266L295.927 134.407H324.113L328.23 142.253C329.513 144.697 333.312 145.931 336.709 145.009C340.109 144.086 341.825 141.357 340.541 138.912L317.558 95.1205ZM300.939 124.946L310.084 107.68L319.146 124.946H300.939Z" fill="#AED032"/>
<path d="M347.785 196.75H490.215C511.083 196.75 528 208.914 528 223.919V326.331C528 341.336 511.084 353.5 490.215 353.5H347.785C326.917 353.5 310 341.336 310 326.331V223.919C310 208.914 326.917 196.75 347.785 196.75Z" fill="#FFD358"/>
<path d="M485.281 322.785H352.715V227.465H485.281V322.785Z" fill="#FFF6F1"/>
<path d="M448.399 287.44C445.615 285.76 441.465 286.022 439.13 288.023C438.556 288.515 437.936 288.976 437.289 289.39C433.959 291.522 429.728 292.602 424.712 292.602C411.31 292.602 400.406 284.762 400.406 275.125C400.406 265.488 411.31 257.648 424.712 257.648C429.584 257.648 434.281 258.679 438.298 260.63C441.309 262.093 445.398 261.524 447.432 259.358C449.466 257.193 448.675 254.253 445.663 252.79C439.463 249.778 432.219 248.186 424.711 248.186C404.053 248.186 387.246 260.271 387.246 275.125C387.246 289.98 404.053 302.064 424.711 302.064C432.934 302.064 440.309 300.125 446.04 296.456C447.162 295.737 448.229 294.946 449.211 294.104C451.547 292.103 451.183 289.119 448.399 287.44Z" fill="#FFD358"/>
</g>
<defs>
<clipPath id="clip0_3745_18595">
<rect width="436" height="313.5" fill="white" transform="translate(92 40)"/>
</clipPath>
</defs>
</svg>
