<svg width="620" height="483" viewBox="0 0 620 483" fill="none" xmlns="http://www.w3.org/2000/svg">
<path d="M553.424 271.782H79.3242V275.893H553.424V271.782Z" fill="#263238"/>
<path d="M442.965 274.207V46.4297" stroke="#263238" stroke-linecap="round" stroke-linejoin="round"/>
<path d="M228.855 274.207V47.8486" stroke="#263238" stroke-linecap="round" stroke-linejoin="round"/>
<path d="M92.168 162.398H536.305" stroke="#263238" stroke-linecap="round" stroke-linejoin="round"/>
<path d="M92.168 379.419H536.305" stroke="#263238" stroke-linecap="round" stroke-linejoin="round"/>
<path d="M363.514 121.216L360.57 122.938" stroke="#263238" stroke-width="0.5" stroke-linecap="round" stroke-linejoin="round"/>
<path d="M412.99 92.2086L367.453 118.9" stroke="#263238" stroke-width="0.5" stroke-linecap="round" stroke-linejoin="round"/>
<path d="M418.991 94.0032L382.516 115.395" stroke="#263238" stroke-width="0.5" stroke-linecap="round" stroke-linejoin="round"/>
<path d="M434.922 84.6656L423.91 91.1292" stroke="#263238" stroke-width="0.5" stroke-linecap="round" stroke-linejoin="round"/>
<path d="M82.4697 272.036L76.9258 275.286" stroke="#263238" stroke-width="0.5" stroke-linecap="round" stroke-linejoin="round"/>
<path d="M175.834 217.297L89.9102 267.671" stroke="#263238" stroke-width="0.5" stroke-linecap="round" stroke-linejoin="round"/>
<path d="M187.166 220.692L118.332 261.062" stroke="#263238" stroke-width="0.5" stroke-linecap="round" stroke-linejoin="round"/>
<path d="M217.232 203.06L196.445 215.259" stroke="#263238" stroke-width="0.5" stroke-linecap="round" stroke-linejoin="round"/>
<path d="M392.978 267.744L387.434 270.994" stroke="#263238" stroke-width="0.5" stroke-linecap="round" stroke-linejoin="round"/>
<path d="M486.346 212.991L400.422 263.378" stroke="#263238" stroke-width="0.5" stroke-linecap="round" stroke-linejoin="round"/>
<path d="M497.673 216.399L428.84 256.769" stroke="#263238" stroke-width="0.5" stroke-linecap="round" stroke-linejoin="round"/>
<path d="M527.74 198.766L506.953 210.954" stroke="#263238" stroke-width="0.5" stroke-linecap="round" stroke-linejoin="round"/>
<path d="M310 443C450.28 443 564 432.266 564 419.025C564 405.784 450.28 395.051 310 395.051C169.72 395.051 56 405.784 56 419.025C56 432.266 169.72 443 310 443Z" fill="#AED032"/>
<path opacity="0.5" d="M310 443C450.28 443 564 432.266 564 419.025C564 405.784 450.28 395.051 310 395.051C169.72 395.051 56 405.784 56 419.025C56 432.266 169.72 443 310 443Z" fill="#FFBFC6"/>
<path d="M363.948 378.789C363.948 376.436 360.405 368.19 357.895 362.648C350.503 365.753 345.673 365.45 345.673 365.45C344.091 366.501 342.783 367.882 341.849 369.488C340.575 371.913 331.233 375.964 326.135 377.576C321.037 379.189 318.068 381.615 321.037 383.64C324.007 385.665 345.252 384.452 352.899 383.24C360.545 382.027 363.948 382.427 363.948 378.789Z" fill="white" stroke="#263238" stroke-linecap="round" stroke-linejoin="round"/>
<path d="M341.861 369.452C340.586 371.877 331.245 375.928 326.147 377.54C321.049 379.153 318.079 381.579 321.049 383.604C324.018 385.629 345.264 384.416 352.91 383.204C360.557 381.991 363.947 382.427 363.947 378.789C363.947 377.213 362.341 372.981 360.544 368.688L348.654 371.513L345.671 365.45C344.099 366.492 342.796 367.86 341.861 369.452Z" fill="white" stroke="#263238" stroke-linecap="round" stroke-linejoin="round"/>
<path d="M249.628 253.884H263.724C264.676 253.884 265.619 254.072 266.491 254.437C267.363 254.801 268.147 255.333 268.792 255.999C269.437 256.666 269.931 257.452 270.241 258.309C270.551 259.166 270.671 260.075 270.593 260.978L268.758 282.564L249.246 278.295L249.628 253.884Z" fill="white" stroke="#263238" stroke-miterlimit="10"/>
<path d="M329.421 314.153C310.625 315.496 292.051 318.873 274.059 324.219C274.059 324.219 287.084 343.197 274.059 367.996L328.605 392.796L351.406 326.935L329.421 314.153ZM310.941 340.372L304.047 359.265C303.758 360.063 303.162 360.728 302.38 361.126C301.598 361.524 300.686 361.626 299.828 361.412L282.61 357.155C282.61 357.155 286.689 350.57 285.057 337.752L307.309 335.885C307.9 335.835 308.495 335.927 309.038 336.154C309.581 336.38 310.056 336.734 310.418 337.181C310.78 337.628 311.018 338.155 311.109 338.712C311.201 339.27 311.143 339.841 310.941 340.372Z" fill="white"/>
<mask id="mask0_3745_18699" style="mask-type:luminance" maskUnits="userSpaceOnUse" x="274" y="314" width="78" height="79">
<path d="M329.425 314.153C310.629 315.496 292.055 318.873 274.062 324.218C274.062 324.218 287.087 343.197 274.062 367.996L328.609 392.795L351.41 326.935L329.425 314.153ZM310.945 340.371L304.051 359.265C303.761 360.063 303.166 360.727 302.384 361.125C301.602 361.523 300.69 361.625 299.832 361.411L282.614 357.155C282.614 357.155 286.692 350.57 285.061 337.752L307.313 335.884C307.904 335.834 308.499 335.927 309.042 336.153C309.585 336.38 310.06 336.733 310.422 337.18C310.784 337.627 311.021 338.154 311.113 338.712C311.205 339.27 311.147 339.84 310.945 340.371Z" fill="white"/>
</mask>
<g mask="url(#mask0_3745_18699)">
<path opacity="0.31" d="M329.425 314.153C310.629 315.496 292.055 318.873 274.062 324.218C274.062 324.218 287.087 343.197 274.062 367.996L328.609 392.795L351.41 326.935L329.425 314.153ZM310.945 340.371L304.051 359.265C303.761 360.063 303.166 360.727 302.384 361.125C301.602 361.523 300.69 361.625 299.832 361.411L282.614 357.155C282.614 357.155 286.692 350.57 285.061 337.752L307.313 335.884C307.904 335.834 308.499 335.927 309.042 336.153C309.585 336.38 310.06 336.733 310.422 337.18C310.784 337.627 311.021 338.154 311.113 338.712C311.205 339.27 311.147 339.84 310.945 340.371Z" fill="black" stroke="#263238" stroke-miterlimit="10"/>
</g>
<path d="M329.421 314.153C310.625 315.496 292.051 318.873 274.059 324.219C274.059 324.219 287.084 343.197 274.059 367.996L328.605 392.796L351.406 326.935L329.421 314.153ZM310.941 340.372L304.047 359.265C303.758 360.063 303.162 360.728 302.38 361.126C301.598 361.524 300.686 361.626 299.828 361.412L282.61 357.155C282.61 357.155 286.689 350.57 285.057 337.752L307.309 335.885C307.9 335.835 308.495 335.927 309.038 336.154C309.581 336.38 310.056 336.734 310.418 337.181C310.78 337.628 311.018 338.155 311.109 338.712C311.201 339.27 311.143 339.841 310.941 340.372Z" stroke="#263238" stroke-miterlimit="10"/>
<path d="M245.59 270.134C245.59 270.134 349.458 289.536 432.298 409.592H411.27C411.27 409.592 343.723 313.184 248.776 284.079L245.59 270.134Z" fill="#AED032" stroke="#263238" stroke-miterlimit="10"/>
<path d="M285.407 364.955C295.987 339.949 283.26 311.515 256.98 301.448C230.699 291.38 200.817 303.49 190.236 328.497C179.655 353.503 192.383 381.937 218.663 392.005C244.944 402.072 274.826 389.962 285.407 364.955Z" fill="#263238" stroke="#263238" stroke-miterlimit="10"/>
<path d="M244.244 383.982C265.881 380.606 280.545 361.181 276.998 340.593C273.451 320.005 253.036 306.052 231.399 309.427C209.763 312.802 195.098 332.227 198.645 352.815C202.192 373.403 222.607 387.357 244.244 383.982Z" fill="#FFD358" stroke="#263238" stroke-miterlimit="10"/>
<path d="M381.18 286.202L373.559 285.607L382.187 245.383L389.808 245.977L381.18 286.202Z" fill="white" stroke="#263238" stroke-miterlimit="10"/>
<path d="M387.846 293.527H379.766V297.007H387.846V293.527Z" fill="white" stroke="#263238" stroke-miterlimit="10"/>
<path d="M364.522 278.525L384.11 280.429L364.917 397.574C364.917 397.574 397.696 404.426 417.692 410.913V421.185C417.692 421.185 377.317 409.774 335.336 406.73C293.356 403.686 237.012 412.441 237.012 412.441V401.406C237.012 401.406 282.574 394.942 320.158 395.343L364.522 278.525Z" fill="white" stroke="#263238" stroke-miterlimit="10"/>
<path d="M391.68 289.124H387.258V300.293H391.68V289.124Z" fill="#263238" stroke="#263238" stroke-linecap="round" stroke-linejoin="round"/>
<path d="M242.935 238.136L228.547 409.269L241.291 410.239L255.68 239.106L242.935 238.136Z" fill="white" stroke="#263238" stroke-width="1.00319" stroke-miterlimit="10"/>
<path d="M247.115 211.617L244.66 240.093L252.281 240.687L254.736 212.212L247.115 211.617Z" fill="white" stroke="#263238" stroke-miterlimit="10"/>
<path d="M372.744 246.608C372.744 246.608 395.519 249.554 409.028 247.711C422.537 245.868 420.995 235.584 418.676 230.455C416.356 225.325 407.486 227.144 397.443 228.624C387.4 230.103 385.093 233.389 376.606 235.233C368.118 237.076 361.172 236.324 361.937 241.102C362.701 245.88 372.744 246.608 372.744 246.608Z" fill="white"/>
<mask id="mask1_3745_18699" style="mask-type:luminance" maskUnits="userSpaceOnUse" x="361" y="227" width="60" height="22">
<path d="M372.74 246.608C372.74 246.608 395.515 249.555 409.024 247.712C422.533 245.869 420.991 235.585 418.672 230.455C416.352 225.326 407.482 227.145 397.439 228.624C387.396 230.104 385.09 233.39 376.602 235.233C368.114 237.077 361.168 236.325 361.933 241.103C362.697 245.881 372.74 246.608 372.74 246.608Z" fill="white"/>
</mask>
<g mask="url(#mask1_3745_18699)">
<path opacity="0.2" d="M372.74 246.608C372.74 246.608 395.515 249.555 409.024 247.712C422.533 245.869 420.991 235.585 418.672 230.455C416.352 225.326 407.482 227.145 397.439 228.624C387.396 230.104 385.09 233.39 376.602 235.233C368.114 237.077 361.168 236.325 361.933 241.103C362.697 245.881 372.74 246.608 372.74 246.608Z" fill="black" stroke="#263238" stroke-miterlimit="10"/>
</g>
<path d="M372.744 246.608C372.744 246.608 395.519 249.554 409.028 247.711C422.537 245.868 420.995 235.584 418.676 230.455C416.356 225.325 407.486 227.144 397.443 228.624C387.4 230.103 385.093 233.389 376.606 235.233C368.118 237.076 361.172 236.324 361.937 241.102C362.701 245.88 372.744 246.608 372.744 246.608Z" stroke="#263238" stroke-miterlimit="10"/>
<path d="M277.896 216.97C264.692 216.97 243.18 215.818 234.169 211.525C221.718 205.607 197.809 184.846 196.789 184.009C196.295 183.579 195.894 183.061 195.61 182.484C195.326 181.906 195.164 181.281 195.134 180.645C195.104 180.008 195.206 179.372 195.434 178.772C195.662 178.173 196.012 177.622 196.464 177.152C196.916 176.681 197.461 176.3 198.068 176.03C198.674 175.759 199.331 175.606 200 175.577C200.67 175.548 201.338 175.645 201.968 175.862C202.598 176.079 203.177 176.413 203.671 176.842C203.901 177.049 227.542 197.531 238.732 202.854C248.392 207.451 281.464 207.523 286.193 207.099C287.466 206.864 288.786 207.101 289.883 207.76C290.979 208.419 291.771 209.451 292.096 210.646C292.421 211.841 292.255 213.109 291.631 214.192C291.008 215.274 289.975 216.09 288.742 216.473C285.147 216.924 281.519 217.091 277.896 216.97Z" fill="#263238"/>
<path d="M347.38 350.412L347.036 373.647C347.029 374.09 347.114 374.529 347.287 374.94C347.46 375.351 347.717 375.725 348.043 376.041C348.369 376.357 348.758 376.608 349.186 376.78C349.615 376.952 350.075 377.041 350.54 377.043C351.043 377.044 351.541 376.942 351.999 376.744C352.457 376.546 352.865 376.257 353.195 375.896C353.525 375.535 353.77 375.11 353.912 374.651C354.054 374.192 354.091 373.709 354.02 373.235L350.528 349.685L347.38 350.412Z" fill="#AED032" stroke="#263238" stroke-miterlimit="10"/>
<path d="M354.634 373.72C354.634 372.893 354.376 372.084 353.893 371.396C353.409 370.708 352.723 370.172 351.919 369.855C351.116 369.538 350.232 369.455 349.379 369.617C348.526 369.778 347.743 370.177 347.128 370.762C346.513 371.347 346.094 372.092 345.924 372.904C345.755 373.715 345.842 374.557 346.175 375.321C346.507 376.086 347.071 376.739 347.794 377.199C348.517 377.658 349.367 377.904 350.237 377.904C351.403 377.904 352.521 377.463 353.346 376.678C354.17 375.894 354.634 374.83 354.634 373.72Z" fill="#AED032" stroke="#263238" stroke-miterlimit="10"/>
<path d="M361.321 345.465H337.336V350.789H361.321V345.465Z" fill="#263238" stroke="#263238" stroke-linecap="round" stroke-linejoin="round"/>
<path d="M227.43 410.428L214.953 430.291V432.462H238.072V429.358L240.124 411.422L227.43 410.428Z" fill="white" stroke="#263238" stroke-miterlimit="10"/>
<path d="M214.953 430.291H237.103" stroke="#263238" stroke-miterlimit="10"/>
<path d="M432.297 409.591L435.292 430.292L435.267 432.462H407.445L407.764 429.358L411.269 409.591H432.297Z" fill="#AED032" stroke="#263238" stroke-miterlimit="10"/>
<path d="M435.294 430.291H408.645" stroke="#263238" stroke-miterlimit="10"/>
<path d="M189.348 175.557C189.348 175.557 190.546 171.361 192.75 170.221C194.213 169.49 195.756 168.917 197.351 168.511" stroke="#263238" stroke-linecap="round" stroke-linejoin="round"/>
<path d="M191.297 178.795C192.444 176.687 193.928 174.76 195.694 173.083C197.2 172.014 199.015 171.413 200.894 171.361" stroke="#263238" stroke-linecap="round" stroke-linejoin="round"/>
<path d="M195.302 184.313C195.302 184.313 193.9 180.311 195.901 178.601C197.902 176.891 203.101 175.557 203.101 175.557" stroke="#263238" stroke-linecap="round" stroke-linejoin="round"/>
<path d="M337.148 260.432L323.129 263.27" stroke="white" stroke-linecap="round" stroke-linejoin="round"/>
<path d="M368.578 341.681C368.578 339.341 365.035 331.094 362.524 325.54C355.132 328.645 350.315 328.342 350.315 328.342C348.734 329.399 347.427 330.784 346.491 332.392C345.217 334.817 335.875 338.856 330.777 340.468C325.679 342.081 322.697 344.519 325.679 346.532C328.662 348.545 349.894 347.344 357.541 346.132C365.188 344.919 368.578 345.319 368.578 341.681Z" fill="white" stroke="#263238" stroke-linecap="round" stroke-linejoin="round"/>
<path d="M346.491 332.392C345.217 334.817 335.875 338.855 330.777 340.468C325.679 342.081 322.697 344.519 325.679 346.532C328.662 348.545 349.894 347.344 357.541 346.131C365.188 344.919 368.578 345.319 368.578 341.681C368.578 340.104 366.985 335.872 365.175 331.579L353.284 334.405L350.315 328.341C348.734 329.398 347.427 330.783 346.491 332.392Z" fill="white" stroke="#263238" stroke-linecap="round" stroke-linejoin="round"/>
<path d="M336.078 211.319C336.078 211.319 373.037 191.31 395.978 185.853" stroke="white" stroke-linecap="round" stroke-linejoin="round"/>
</svg>
