<svg width="620" height="483" viewBox="0 0 620 483" fill="none" xmlns="http://www.w3.org/2000/svg">
<rect width="620" height="483" fill="#F4F4F4"/>
<g clip-path="url(#clip0_3745_18771)">
<path d="M467.862 137.276V220.655H152.956C131.758 220.655 114.551 201.978 114.551 178.966C114.551 155.953 131.758 137.276 152.956 137.276H467.862Z" fill="#FFF6F1"/>
<path d="M482.897 227.604C482.872 235.269 476.155 241.477 467.862 241.5H159.655C122.29 241.5 92 213.502 92 178.966C92 144.429 122.29 116.431 159.655 116.431H467.862C476.166 116.431 482.897 122.653 482.897 130.328C482.897 138.003 476.166 144.224 467.862 144.224H159.655C138.897 144.224 122.069 159.779 122.069 178.966C122.069 198.153 138.897 213.707 159.655 213.707H467.862C476.155 213.73 482.872 219.938 482.897 227.604Z" fill="#222443"/>
<path d="M512.967 241.5H137.105C128.801 241.5 122.07 247.722 122.07 255.397V324.88C122.07 332.555 128.801 338.776 137.105 338.776H512.967C521.27 338.776 528.002 332.555 528.002 324.88V255.397C528.002 247.722 521.27 241.5 512.967 241.5Z" fill="#AED032"/>
<path d="M482.897 338.776H107.034C98.7312 338.776 92 344.997 92 352.672V422.155C92 429.83 98.7312 436.052 107.034 436.052H482.897C491.2 436.052 497.931 429.83 497.931 422.155V352.672C497.931 344.997 491.2 338.776 482.897 338.776Z" fill="#F73B50"/>
<path d="M482.897 46.9482H107.034C98.7312 46.9482 92 53.1699 92 60.8448V102.535C92 110.209 98.7312 116.431 107.034 116.431H482.897C491.2 116.431 497.931 110.209 497.931 102.535V60.8448C497.931 53.1699 491.2 46.9482 482.897 46.9482Z" fill="#FFD358"/>
<path d="M152.137 46.9482H182.206V116.431H152.137V46.9482Z" fill="white"/>
<path d="M407.723 46.9482H437.792V116.431H407.723V46.9482Z" fill="white"/>
<path d="M407.725 269.293H242.345C238.194 269.293 234.828 272.404 234.828 276.241V304.034C234.828 307.872 238.194 310.983 242.345 310.983H407.725C411.877 310.983 415.242 307.872 415.242 304.034V276.241C415.242 272.404 411.877 269.293 407.725 269.293Z" fill="white"/>
<path d="M452.828 241.5H467.863V338.776H452.828V241.5Z" fill="white"/>
<path d="M182.207 241.5H197.242V338.776H182.207V241.5Z" fill="white"/>
<path d="M294.964 408.259C332.329 408.259 362.619 398.926 362.619 387.414C362.619 375.902 332.329 366.569 294.964 366.569C257.599 366.569 227.309 375.902 227.309 387.414C227.309 398.926 257.599 408.259 294.964 408.259Z" fill="#FFF6F1"/>
<path d="M137.102 338.776H167.171V436.052H137.102V338.776Z" fill="#FFD358"/>
<path d="M422.758 338.776H452.827V436.052H422.758V338.776Z" fill="#FFD358"/>
</g>
<defs>
<clipPath id="clip0_3745_18771">
<rect width="436" height="403" fill="white" transform="translate(92 40)"/>
</clipPath>
</defs>
</svg>
