<svg width="436" height="403" viewBox="0 0 436 403" fill="none" xmlns="http://www.w3.org/2000/svg">
<path d="M184.676 0C138.605 0.054684 94.4388 16.9469 61.8621 46.9721C29.2854 76.9974 10.9578 117.705 10.8984 160.167C11.1012 192.514 23.8465 223.729 46.8327 248.174C69.8188 272.62 101.531 288.684 136.242 293.467C139.209 293.847 142.043 294.845 144.53 296.384C147.016 297.924 149.09 299.965 150.593 302.353C151.915 304.792 152.604 307.481 152.604 310.207C152.604 312.933 151.915 315.621 150.593 318.06L135.345 353.4C133.017 358.898 132.175 364.835 132.892 370.7C133.609 376.565 135.863 382.181 139.461 387.063C143.059 391.945 147.891 395.948 153.542 398.724C159.193 401.501 165.491 402.968 171.895 403H184.676C242.658 403 298.266 381.771 339.265 343.982C380.265 306.193 403.299 254.941 403.299 201.5C403.299 148.059 380.265 96.8066 339.265 59.018C298.266 21.2294 242.658 0 184.676 0Z" fill="#FFF6F1"/>
<path d="M251.944 330.667C279.807 330.667 302.395 309.848 302.395 284.167C302.395 258.485 279.807 237.667 251.944 237.667C224.08 237.667 201.492 258.485 201.492 284.167C201.492 309.848 224.08 330.667 251.944 330.667Z" fill="#222443"/>
<path d="M296.791 227.333C324.655 227.333 347.243 206.515 347.243 180.833C347.243 155.152 324.655 134.333 296.791 134.333C268.928 134.333 246.34 155.152 246.34 180.833C246.34 206.515 268.928 227.333 296.791 227.333Z" fill="#AED032"/>
<path d="M106.194 196.333C134.057 196.333 156.645 175.515 156.645 149.833C156.645 124.152 134.057 103.333 106.194 103.333C78.3301 103.333 55.7422 124.152 55.7422 149.833C55.7422 175.515 78.3301 196.333 106.194 196.333Z" fill="#F73B50"/>
<path d="M218.307 144.667C246.17 144.667 268.758 123.848 268.758 98.167C268.758 72.4857 246.17 51.6669 218.307 51.6669C190.443 51.6669 167.855 72.4857 167.855 98.167C167.855 123.848 190.443 144.667 218.307 144.667Z" fill="#FFD358"/>
</svg>
