<svg width="436" height="403" viewBox="0 0 436 403" fill="none" xmlns="http://www.w3.org/2000/svg">
<g clip-path="url(#clip0_3745_18681)">
<path d="M66.019 192.7C60.8356 193.953 31.9182 208.142 4.86921 227.87C-4.64019 234.805 0.726357 248.945 12.7904 248.945C21.7301 248.945 22.3177 242.272 56.0873 224.007C57.8653 212.67 61.2963 202.355 66.019 192.7Z" fill="#222443"/>
<path d="M61.9916 276.027C31.3576 290.92 13.6528 305.495 5.58507 310.58C-0.24302 314.254 -1.74517 321.6 2.22991 326.987C6.21778 332.39 14.1688 333.749 19.979 330.088C29.4858 324.095 45.7158 310.534 74.4917 296.629C69.3534 290.265 65.1654 283.351 61.9916 276.027Z" fill="#222443"/>
<path d="M433.408 114.719C429.152 109.519 421.142 108.494 415.515 112.428C413.096 114.12 410.702 115.914 408.401 117.763C329.847 180.854 248.101 155.241 150.168 169.241C151.592 176.696 153.076 184.455 154.617 192.499C249.321 179.128 338.934 204.837 425.156 135.587C427.024 134.087 428.966 132.63 430.93 131.258C436.556 127.324 437.665 119.919 433.408 114.719Z" fill="#222443"/>
<path d="M430.933 131.261C428.966 132.63 427.024 134.086 425.16 135.59C366.359 182.816 305.984 185.878 243.488 187.287V163.69C302.425 162.454 356.123 159.754 408.401 117.762C410.7 115.912 413.093 114.117 415.511 112.425C421.14 108.497 429.153 109.521 433.411 114.716C437.669 119.918 436.553 127.325 430.933 131.261Z" fill="#471A52"/>
<path d="M432.866 197.435C428.239 192.512 420.171 191.99 414.846 196.268C356.265 243.321 297.691 240.832 224.758 242.763C227.483 250.289 228.559 258.285 227.86 266.303C265.267 265.367 301.497 265.652 337.682 258.102C373.255 250.678 403.977 236.282 431.603 214.092C436.928 209.814 437.493 202.357 432.866 197.435Z" fill="#222443"/>
<path d="M431.601 214.088C403.976 236.285 373.252 250.673 337.683 258.104C306.558 264.597 275.399 265.298 243.492 265.959V242.322C307.896 240.89 361.365 239.221 414.851 196.268C420.174 191.994 428.238 192.514 432.87 197.433C437.494 202.36 436.932 209.814 431.601 214.088Z" fill="#471A52"/>
<path d="M39.1367 95.2449C46.1913 95.2449 51.9102 89.9589 51.9102 83.4383C51.9102 76.9177 46.1913 71.6317 39.1367 71.6317C32.0821 71.6317 26.3633 76.9177 26.3633 83.4383C26.3633 89.9589 32.0821 95.2449 39.1367 95.2449Z" fill="#AED032"/>
<path d="M160.084 198.451C155.518 174.636 150.929 150.602 146.763 128.633C158.854 116.252 169.582 103.864 176.564 89.9769C185.306 72.5889 189.277 56.5255 188.367 42.2332C184.432 -19.6549 94.5083 -14.4639 108.76 64.0227C111.348 78.2773 115.092 98.3076 119.423 121.214C84.0434 156.216 52.8473 186.797 50.5788 236.275C47.755 297.849 103.919 342.503 160.522 335.356C162.224 344.144 163.227 349.314 163.289 349.635C166.178 364.765 153.914 378.273 137.852 379.32C121.677 380.367 107.522 368.455 108.228 353.063L108.303 351.421C108.602 344.907 103.13 339.402 96.082 339.125C89.0515 338.824 83.0778 343.905 82.7797 350.421L82.7048 352.062C81.3678 381.207 107.968 404.945 139.649 402.873C171.14 400.82 193.911 374.151 188.44 345.497C188.37 345.141 187.17 338.954 185.156 328.552C208.77 318.149 226.6 297.728 231.337 272.268C239.084 230.64 201.189 195.054 160.084 198.451ZM153.396 80.0255C150.301 86.1822 146.043 92.2343 141.032 98.2832C138.223 83.3282 135.795 70.2535 133.954 60.1147C123.57 2.93282 185.923 15.3259 153.396 80.0255ZM76.1018 237.273C77.7725 200.838 100.579 174.71 124.947 150.328C128.37 168.309 131.98 187.187 135.562 205.867C113.478 218.186 102.59 242.39 110.133 263.502C112.344 269.694 119.566 273.056 126.266 271.011C132.966 268.967 136.603 262.29 134.39 256.099C131.63 248.37 133.975 239.555 140.66 232.423C146.474 262.666 151.924 290.899 156.017 312.076C115.404 316.539 73.9822 283.507 76.1018 237.273ZM206.162 268.266C203.315 283.563 193.631 296.231 180.412 304.023C176.116 281.795 170.496 252.671 164.58 221.876C188.576 221.358 210.872 242.951 206.162 268.266Z" fill="#F73B50"/>
<path d="M364.9 295.943L339.268 284.53C330.796 280.757 320.952 286.475 320.952 295.166V320.783C296.053 312.682 269.945 329.876 269.945 354.198C269.945 373.729 287.135 389.617 308.265 389.617C330.13 389.617 347.902 372.553 346.499 351.95V313.958L353.814 317.215C360.171 320.045 367.803 317.577 370.865 311.702C373.925 305.829 371.256 298.773 364.9 295.943Z" fill="#AED032"/>
<path d="M375.561 11.7996C375.552 3.96468 367.441 -1.66709 359.325 0.448663L265.635 24.849C260.129 26.2824 256.326 30.9255 256.326 36.2125V73.7931C231.434 65.6118 205.203 82.7803 205.203 107.172C205.203 126.703 222.393 142.591 243.523 142.591C264.664 142.591 281.872 126.674 281.872 107.051V45.1517L350.033 27.4009L350.061 50.0436C325.119 41.8813 298.988 59.1158 298.988 83.4383C298.988 102.969 316.178 118.857 337.308 118.857C358.5 118.857 375.67 102.849 375.647 83.4249L375.561 11.7996Z" fill="#FFD358"/>
<path d="M375.651 83.4282C375.668 102.846 358.5 118.856 337.305 118.856C316.178 118.856 298.984 102.972 298.984 83.436C298.984 59.1144 325.119 41.8846 350.061 50.0469L350.036 27.4017L281.868 45.1511V107.049C281.868 126.672 264.667 142.595 243.522 142.595H243.488V71.7317C247.712 71.7317 252.038 72.385 256.321 73.7939V36.2095C256.321 30.928 260.128 26.2841 265.637 24.8515L359.325 0.451135C367.441 -1.66619 375.548 3.96164 375.565 11.8012L375.651 83.4282Z" fill="#FFD358"/>
</g>
<defs>
<clipPath id="clip0_3745_18681">
<rect width="436" height="403" fill="white"/>
</clipPath>
</defs>
</svg>
