<svg width="436" height="398" viewBox="0 0 436 398" fill="none" xmlns="http://www.w3.org/2000/svg">
<g clip-path="url(#clip0_3745_18616)">
<path d="M217.866 9.41309H49.6886C30.5242 9.41309 14.9883 23.7731 14.9883 41.487V196.5H217.867V9.41309H217.866Z" fill="#F73B50"/>
<path d="M14.9883 196.5V351.513C14.9883 369.227 30.5242 383.587 49.6886 383.587H217.867V196.5H14.9883Z" fill="#FFD358"/>
<path d="M421.012 196.5V41.487C421.012 23.7731 405.476 9.41309 386.311 9.41309H217.867V196.5H421.012Z" fill="#222443"/>
<path d="M217.867 196.5V383.587H386.31C405.475 383.587 421.011 369.227 421.011 351.513V196.5H217.867Z" fill="#AED032"/>
<path d="M384.357 -5H51.643C23.1668 -5 0 16.4133 0 42.7342V350.267C0 376.587 23.1668 398 51.643 398H384.358C412.833 398 436 376.587 436 350.266V42.7342C436 16.4133 412.833 -5 384.357 -5ZM205.227 374.387H51.643C37.2533 374.387 25.5469 363.566 25.5469 350.266V208.307H205.227V374.387ZM205.227 184.693H25.5469V42.7342C25.5469 29.4337 37.2533 18.6133 51.643 18.6133H205.227V184.693ZM410.453 350.266C410.453 363.566 398.747 374.387 384.357 374.387H230.773V208.307H410.453V350.266ZM410.453 184.693H230.773V18.6133H384.357C398.747 18.6133 410.453 29.4337 410.453 42.7342V184.693Z" fill="#FFF6F1"/>
<path d="M71.1641 331.831C75.5743 335.785 83.6156 336.843 89.2283 331.831L114.683 308.303L140.138 331.831C142.632 334.136 145.902 335.29 149.17 335.29C152.438 335.29 155.708 334.137 158.201 331.831C163.19 327.22 163.19 319.745 158.201 315.134L132.747 291.606L158.201 268.077C163.19 263.467 163.19 255.991 158.201 251.381C153.214 246.77 145.126 246.77 140.137 251.381L114.682 274.909L89.2274 251.381C84.2398 246.77 76.1517 246.77 71.1632 251.381C66.1748 255.991 66.1748 263.467 71.1632 268.077L96.6181 291.606L71.1632 315.134C66.1756 319.745 66.1756 327.22 71.1641 331.831Z" fill="#FFF6F1"/>
<path d="M65.9101 112.127H101.908V145.4C101.908 151.921 107.627 157.207 114.682 157.207C121.736 157.207 127.455 151.921 127.455 145.4V112.127H163.453C170.508 112.127 176.227 106.84 176.227 100.32C176.227 93.7995 170.508 88.5133 163.453 88.5133H127.455V55.239C127.455 48.7186 121.736 43.4324 114.682 43.4324C107.627 43.4324 101.908 48.7186 101.908 55.239V88.5125H65.9101C58.8558 88.5125 53.1367 93.7987 53.1367 100.319C53.1367 106.84 58.8558 112.127 65.9101 112.127Z" fill="#FFF6F1"/>
<path d="M275.784 331.831C280.195 335.785 288.236 336.843 293.849 331.831L362.823 268.077C367.811 263.467 367.811 255.991 362.823 251.38C357.835 246.769 349.747 246.77 344.758 251.38L275.784 315.134C270.796 319.745 270.796 327.22 275.784 331.831Z" fill="#FFF6F1"/>
<path d="M368.075 89.5868H270.531C263.477 89.5868 257.758 94.873 257.758 101.393C257.758 107.914 263.477 113.2 270.531 113.2H368.075C375.13 113.2 380.849 107.914 380.849 101.393C380.849 94.873 375.13 89.5868 368.075 89.5868Z" fill="#FFF6F1"/>
<path d="M283.711 270.222C290.766 270.222 296.484 264.936 296.484 258.415C296.484 251.895 290.766 246.609 283.711 246.609C276.656 246.609 270.938 251.895 270.938 258.415C270.938 264.936 276.656 270.222 283.711 270.222Z" fill="#FFF6F1"/>
<path d="M354.871 336.232C361.926 336.232 367.645 330.946 367.645 324.426C367.645 317.905 361.926 312.619 354.871 312.619C347.817 312.619 342.098 317.905 342.098 324.426C342.098 330.946 347.817 336.232 354.871 336.232Z" fill="#FFF6F1"/>
<path d="M384.355 -5H217.812V398H384.355C412.831 398 435.998 376.587 435.998 350.266V42.7342C435.998 16.4133 412.831 -5 384.355 -5ZM410.451 350.266C410.451 363.566 398.745 374.387 384.355 374.387H230.772V208.307H410.451V350.266ZM410.451 184.693H230.772V18.6133H384.355C398.745 18.6133 410.451 29.4337 410.451 42.7342V184.693Z" fill="#FFF6F1"/>
</g>
<defs>
<clipPath id="clip0_3745_18616">
<rect width="436" height="403" fill="white" transform="translate(0 -5)"/>
</clipPath>
</defs>
</svg>
