<svg width="436" height="403" viewBox="0 0 436 403" fill="none" xmlns="http://www.w3.org/2000/svg">
<g clip-path="url(#clip0_3745_18654)">
<path d="M260.175 108.131C260.175 108.131 244.248 208.466 244.148 211.899L354.672 160.015L367.571 72.595C367.893 56.8837 364.488 41.139 357.363 26.5219C356.259 24.257 353.507 23.1018 350.936 23.8233L344.25 25.6984C302.386 37.4401 270.39 68.8112 260.175 108.131Z" fill="#AED032"/>
<path d="M366.308 81.1595C335.212 85.0549 306.39 98.0284 283.627 118.67L273.19 128.133L254.375 144.863C249.811 173.892 244.208 209.868 244.148 211.899L354.672 160.015L366.308 81.1595Z" fill="white"/>
<path d="M288.848 191.425L340.623 206.537C387.337 204.674 435.999 171.091 435.999 127.873V100.043C435.999 97.9297 434.146 96.216 431.859 96.216H386.243C352.485 96.216 320.076 108.457 295.978 130.309L285.479 139.829L205.605 210.851L220.829 226.99L288.848 191.425Z" fill="#AED032"/>
<path d="M196.327 264.358C249.602 264.358 292.79 224.439 292.79 175.196C292.79 125.953 249.602 86.034 196.327 86.034C143.051 86.034 99.8633 125.953 99.8633 175.196C99.8633 224.439 143.051 264.358 196.327 264.358Z" fill="#F73B50"/>
<path d="M160.589 203.035C143.323 192.154 122.672 185.537 100.426 184.831C105.625 229.542 146.574 264.358 196.326 264.358C243.393 264.358 282.579 233.198 291.075 191.981C278.209 187.323 264.214 184.762 249.583 184.762C225.773 184.762 203.645 191.538 185.334 203.113C177.885 207.821 168.045 207.735 160.589 203.035Z" fill="white"/>
<path d="M96.4634 379.391C149.739 379.391 192.927 339.471 192.927 290.229C192.927 240.986 149.739 201.066 96.4634 201.066C43.1881 201.066 0 240.986 0 290.229C0 339.471 43.1881 379.391 96.4634 379.391Z" fill="#FFD358"/>
<path d="M160.933 223.91C145.027 242.041 135.48 265.122 135.48 290.229C135.48 315.335 145.027 338.417 160.933 356.548C180.572 340.226 192.926 316.562 192.926 290.229C192.926 263.895 180.572 240.232 160.933 223.91Z" fill="white"/>
<path d="M249.585 379.391C302.86 379.391 346.048 339.472 346.048 290.229C346.048 240.986 302.86 201.067 249.585 201.067C196.309 201.067 153.121 240.986 153.121 290.229C153.121 339.472 196.309 379.391 249.585 379.391Z" fill="#222443"/>
<path d="M234.743 290.001C231.091 286.884 228.682 283.083 227.71 278.489C227.238 276.254 224.771 274.957 222.422 275.643C217.473 277.089 212.523 277.073 207.574 275.597C205.31 274.921 202.84 276.099 202.326 278.247C201.244 282.767 198.715 286.833 194.58 290.393C192.806 291.921 192.879 294.524 194.716 295.987C198.76 299.21 201.601 302.988 202.589 307.619C203.076 309.902 205.573 311.238 207.946 310.46C212.685 308.908 217.424 308.903 222.163 310.446C224.58 311.233 227.149 309.836 227.52 307.492C228.297 302.568 230.555 298.611 234.543 295.782C236.54 294.364 236.594 291.582 234.743 290.001Z" fill="white"/>
<path d="M81.6217 290.001C77.9701 286.884 75.5612 283.083 74.5892 278.489C74.1164 276.254 71.6503 274.957 69.3014 275.643C64.3523 277.089 59.4023 277.073 54.4531 275.597C52.1889 274.921 49.7192 276.099 49.205 278.247C48.1227 282.767 45.5939 286.833 41.4589 290.393C39.6851 291.921 39.7583 294.524 41.5947 295.987C45.6389 299.21 48.48 302.988 49.4678 307.619C49.9547 309.902 52.4518 311.238 54.8245 310.46C59.5637 308.908 64.3029 308.903 69.0421 310.446C71.4589 311.233 74.0282 309.836 74.3987 307.492C75.1758 302.568 77.4338 298.611 81.4215 295.782C83.4193 294.364 83.4731 291.582 81.6217 290.001Z" fill="white"/>
<path d="M182.255 149.094C178.603 145.977 176.194 142.176 175.222 137.582C174.749 135.347 172.283 134.05 169.934 134.736C164.985 136.182 160.035 136.166 155.086 134.69C152.822 134.014 150.352 135.192 149.838 137.34C148.756 141.86 146.227 145.926 142.092 149.486C140.318 151.014 140.391 153.617 142.228 155.08C146.272 158.303 149.113 162.081 150.101 166.712C150.588 168.995 153.085 170.331 155.457 169.554C160.196 168.001 164.936 167.996 169.675 169.54C172.092 170.327 174.661 168.93 175.032 166.586C175.809 161.662 178.067 157.704 182.054 154.875C184.052 153.457 184.106 150.674 182.255 149.094Z" fill="white"/>
</g>
<defs>
<clipPath id="clip0_3745_18654">
<rect width="436" height="403" fill="white"/>
</clipPath>
</defs>
</svg>
