<svg width="16" height="16" viewBox="0 0 16 16" fill="none" xmlns="http://www.w3.org/2000/svg">
<path d="M14.2997 5.46797C14.3346 6.16806 14.3346 7.00087 14.3346 8.0013C14.3346 10.9869 14.3346 12.4796 13.4071 13.4071C12.4796 14.3346 10.9869 14.3346 8.0013 14.3346C5.01574 14.3346 3.52296 14.3346 2.59546 13.4071C1.66797 12.4796 1.66797 10.9869 1.66797 8.0013C1.66797 5.01574 1.66797 3.52296 2.59546 2.59546C3.52296 1.66797 5.01574 1.66797 8.0013 1.66797C8.71592 1.66797 9.34501 1.66797 9.9013 1.68069" stroke="white" stroke-width="1.5" stroke-linecap="round"/>
<path d="M5.33594 7.66797C5.33594 7.66797 6.33594 7.66797 7.66927 10.0013C7.66927 10.0013 11.0418 3.89019 14.3359 2.66797" stroke="white" stroke-width="1.5" stroke-linecap="round" stroke-linejoin="round"/>
</svg>
