<svg width="18" height="18" viewBox="0 0 18 18" fill="none" xmlns="http://www.w3.org/2000/svg">
<path d="M10.5 10.5L12.375 12.375" stroke="#141B34" stroke-width="1.5" stroke-linejoin="round"/>
<path d="M12.3249 13.8939C11.8917 13.4606 11.8917 12.7582 12.3249 12.3249C12.7582 11.8917 13.4606 11.8917 13.8939 12.3249L16.1751 14.6061C16.6083 15.0394 16.6083 15.7418 16.1751 16.1751C15.7418 16.6083 15.0394 16.6083 14.6061 16.1751L12.3249 13.8939Z" stroke="#141B34" stroke-width="1.5" stroke-linecap="round"/>
<path d="M12 6.75C12 3.8505 9.64949 1.5 6.75 1.5C3.8505 1.5 1.5 3.8505 1.5 6.75C1.5 9.64949 3.8505 12 6.75 12C9.64949 12 12 9.64949 12 6.75Z" stroke="#141B34" stroke-width="1.5" stroke-linejoin="round"/>
</svg>
