<svg width="377" height="364" viewBox="0 0 377 364" fill="none" xmlns="http://www.w3.org/2000/svg">
<path d="M108.31 304.649C106.119 305.017 103.76 305.079 101.299 304.796C91.5234 303.711 83.8958 297.571 84.2759 291.118C87.2465 242.38 93.6678 195.334 138.931 155.731C198.128 103.918 308.205 76.5154 426.21 84.1512C538.716 91.4379 638.263 128.122 699.313 184.833C705.35 190.452 704.029 197.729 696.336 201.079C688.642 204.429 677.504 202.604 671.467 196.985C617.48 146.811 528.481 114.292 427.339 107.733C320.373 100.789 221.051 125.267 168.147 171.572C128.236 206.492 122.613 248.165 119.782 295.093C119.473 299.929 114.805 303.559 108.39 304.636L108.31 304.649Z" fill="#5174DC"/>
<path d="M144.491 298.579C142.259 298.953 139.821 299.029 137.249 298.704C127.468 297.528 119.96 291.369 120.475 284.923C123.814 243.21 130.157 202.93 170.637 168.732C224.455 123.303 323.429 99.459 428.925 106.499C525.847 112.978 611.266 143.887 663.31 191.389C669.412 196.967 668.201 204.286 660.578 207.685C652.955 211.084 641.768 209.327 635.666 203.749C590.663 162.667 515.652 135.826 429.934 130.101C335.318 123.779 247.01 144.774 199.481 184.848C164.503 214.398 159.016 249.568 155.864 289.16C155.47 293.92 150.811 297.488 144.475 298.551L144.491 298.579Z" fill="#FF7B74"/>
<path d="M180.671 292.515C178.32 292.909 175.787 292.971 173.106 292.603C163.344 291.304 155.965 285.062 156.669 278.645C160.375 243.956 166.64 210.442 202.447 181.692C250.998 142.689 338.938 122.452 431.909 128.868C513.082 134.477 584.308 159.652 627.333 197.917C633.539 203.447 632.503 210.768 624.94 214.277C617.363 217.759 606.236 216.113 599.975 210.562C563.911 178.488 502.968 157.311 432.784 152.462C350.438 146.777 273.049 164.274 230.846 198.186C200.786 222.337 195.488 251.025 192.032 283.311C191.552 287.994 186.927 291.465 180.671 292.515Z" fill="#FDB65E"/>
</svg>
