<svg width="17" height="16" viewBox="0 0 17 16" fill="none" xmlns="http://www.w3.org/2000/svg">
<path d="M16.4992 1.8995C15.9 2.2255 15.2645 2.43961 14.6138 2.53472C15.2997 2.03024 15.813 1.23628 16.0581 0.300807C15.4144 0.771918 14.7088 1.10208 13.9733 1.28068C12.9575 -0.0560794 11.3377 -0.3855 10.0261 0.477911C8.71449 1.34132 8.03896 3.18168 8.37991 4.96268C5.74021 4.79996 3.28081 3.26648 1.61382 0.743922C1.32205 1.36028 1.16873 2.06093 1.16955 2.77414C1.16955 4.17396 1.74882 5.41062 2.62951 6.13467C2.10833 6.11448 1.59861 5.94138 1.14286 5.62977L1.14286 5.67997C1.14286 7.60126 2.24391 9.25727 3.77563 9.63887C3.29203 9.80005 2.78497 9.82388 2.29278 9.70854C2.72224 11.3537 3.95483 12.4809 5.3595 12.513C3.98426 13.8414 2.23606 14.4429 0.5 14.1851C2.00055 15.3719 3.74733 16.002 5.5314 16C11.5699 16 14.8721 9.84756 14.8721 4.51184C14.8721 4.33807 14.8681 4.16237 14.8619 3.99053C15.5046 3.41918 16.0593 2.71141 16.5 1.90046L16.4992 1.8995Z" fill="white"/>
</svg>
